<?xml version="1.0" standalone="no"?>
<!DOCTYPE svg PUBLIC "-//W3C//DTD SVG 1.1//EN" "http://www.w3.org/Graphics/SVG/1.1/DTD/svg11.dtd" >
<!--
2013-9-30: Created.
-->
<svg>
<metadata>
Created by iconfont
</metadata>
<defs>

<font id="iconfont" horiz-adv-x="1024" >
  <font-face
    font-family="iconfont"
    font-weight="500"
    font-stretch="normal"
    units-per-em="1024"
    ascent="896"
    descent="-128"
  />
    <missing-glyph />
    
    <glyph glyph-name="menu" unicode="&#58962;" d="M896 588.8l-768 0c-14.1312 0-25.6 11.4688-25.6 25.6s11.4688 25.6 25.6 25.6l768 0c14.1312 0 25.6-11.4688 25.6-25.6s-11.4688-25.6-25.6-25.6zM896 332.8l-768 0c-14.1312 0-25.6 11.4688-25.6 25.6s11.4688 25.6 25.6 25.6l768 0c14.1312 0 25.6-11.4688 25.6-25.6s-11.4688-25.6-25.6-25.6zM896 76.8l-768 0c-14.1312 0-25.6 11.4688-25.6 25.6s11.4688 25.6 25.6 25.6l768 0c14.1312 0 25.6-11.4688 25.6-25.6s-11.4688-25.6-25.6-25.6z"  horiz-adv-x="1024" />

    
    <glyph glyph-name="checkbox" unicode="&#60116;" d="M425.984 169.984l384 384-59.989333 61.994667-324.010667-324.010667-152.021333 152.021333-59.989333-59.989333zM809.984 768q36.010667 0 61.013333-25.984t25.002667-59.989333l0-596.010667q0-34.005333-25.002667-59.989333t-61.013333-25.984l-596.010667 0q-36.010667 0-61.013333 25.984t-25.002667 59.989333l0 596.010667q0 34.005333 25.002667 59.989333t61.013333 25.984l596.010667 0z"  horiz-adv-x="1024" />

    
    <glyph glyph-name="star" unicode="&#58895;" d="M511.51086 704.061526c3.901867 0 7.855922-2.629897 9.619078-6.404873l76.456323-163.568333 14.470573-30.958082 33.778314-5.177929 176.005596-26.978445c4.025687-0.613984 7.151887-3.372817 8.588609-7.573489 1.49812-4.597715 0.525979-9.113565-2.705622-12.43317L698.311313 317.820742l-22.428825-23.075555 5.163603-31.762401 30.016641-184.659697c0.708128-4.342912-1.251503-9.267061-4.669346-11.773138-1.888-1.294482-3.837398-1.923816-5.951549-1.923816-1.657756 0-3.391237 0.452301-4.885264 1.27504L542.540573 150.799774l-31.029714 17.217127-31.029714-17.217127-152.8492-84.810594c-1.804089-0.979304-3.708462-1.184989-4.993734-1.184989-2.229784 0-4.393054 0.618077-5.947456 1.697665-3.517103 2.547009-5.465478 7.361665-4.743024 11.745509l0.011256 0.070608 0.011256 0.070608 29.979802 184.605461 5.15644 31.749098-22.413476 23.070438L195.321524 450.970274l-0.034792 0.035816-0.034792 0.035816c-3.152806 3.234671-4.151553 7.829316-2.676969 12.299117 1.429559 4.243651 4.564969 7.03216 8.625448 7.652284l175.983083 26.960025 33.787524 5.175883 14.470573 30.967292 76.41232 163.519214C503.630379 701.411163 507.60183 704.061526 511.51086 704.061526M511.51086 768.018164c-28.733415 0-55.262628-16.983813-67.577095-43.278689L367.498932 561.171142 191.515848 534.21214c-27.747971-4.242627-50.581002-23.639396-59.603493-50.610678-9.069563-27.215852-2.341325-56.800657 17.537422-77.197196l129.370463-133.159766-29.979802-184.604438c-4.693906-28.500101 7.41897-57.661258 30.884404-74.331939 12.605086-8.908904 27.721365-13.461593 42.912345-13.461593 12.334933 0 24.720008 3.003404 35.839253 9.114588l153.034419 84.913948 153.084561-84.937484c11.003612-6.083555 23.384593-9.268084 35.847439-9.268084 15.358803 0 30.170137 4.721535 42.881646 13.662161 23.39585 16.623609 35.509748 45.783743 30.861892 74.284867l-30.011524 184.628998 129.413442 133.147486c19.854187 20.396539 26.571169 49.970088 17.513886 77.246315-9.03477 26.960025-31.886221 46.332235-59.615773 50.561559L655.525857 561.171142l-76.456323 163.568333C566.788837 751.023094 540.26781 768.018164 511.51086 768.018164L511.51086 768.018164z"  horiz-adv-x="1024" />

    
    <glyph glyph-name="star1" unicode="&#58960;" d="M956 497.504q-8 23.488-26.496 39.008t-42.496 19.488l-204.992 31.008-92 195.008q-11.008 24-32.992 36.992Q536.032 832 512.032 832t-44.992-12.992q-22.016-12.992-32.992-36.992l-92-195.008-204.992-31.008q-24-4-42.496-19.488t-26.496-39.008-2.496-47.008 22.496-41.504l151.008-154.016-36-218.016q-6.016-40 20-70.496t66.016-30.496q22.016 0 42.016 11.008l180.992 100 180.992-100q20-11.008 42.016-11.008 40 0 66.016 30.496t20 70.496l-36 218.016 151.008 154.016q16.992 18.016 22.496 41.504t-2.496 47.008z"  horiz-adv-x="1024" />

    
    <glyph glyph-name="check-box-outline-bl" unicode="&#60504;" d="M810.666667 682.666667v-597.333334H213.333333V682.666667h597.333334m0 85.333333H213.333333c-47.146667 0-85.333333-38.186667-85.333333-85.333333v-597.333334c0-47.146667 38.186667-85.333333 85.333333-85.333333h597.333334c47.146667 0 85.333333 38.186667 85.333333 85.333333V682.666667c0 47.146667-38.186667 85.333333-85.333333 85.333333z"  horiz-adv-x="1024" />

    
    <glyph glyph-name="RectangleCopy" unicode="&#59049;" d="M762.651364 174.374887l-244.51961 75.945717 334.929146 381.136569-90.452202-457.082286zM902.041621 721.013387a21.333067 21.333067 0 0 1-22.485052 2.005309L155.981614 357.967259a21.333067 21.333067 0 1 1 2.986629-39.338175L387.488053 244.048683a21.333067 21.333067 0 1 1 13.226502 40.532826L221.388796 343.204777l577.699446 291.40969-334.715816-380.79524 0.426661-0.426661a20.906405 20.906405 0 0 1-5.759928-13.653163l-0.085332-176.339129a21.333067 21.333067 0 0 1 42.666133 0l0.085332 147.368825 270.929947-84.180281a21.418399 21.418399 0 0 1 27.263659 16.21313L910.148187 699.850985a21.546397 21.546397 0 0 1-8.106566 21.162402z"  horiz-adv-x="1040" />

    
    <glyph glyph-name="nextsong" unicode="&#59037;" d="M600 419.28V480a16 16 0 0 0 16 16h16a16 16 0 0 0 16-16v-192a16 16 0 0 0-16-16h-16a16 16 0 0 0-16 16v76.16l-143.104-86.928a32 32 0 0 0-48.608 27.36V478.848a32 32 0 0 0 48.608 27.36l143.104-86.944zM512 96c159.056 0 288 128.944 288 288s-128.944 288-288 288-288-128.944-288-288 128.944-288 288-288z m0-48c-185.568 0-336 150.432-336 336s150.432 336 336 336 336-150.432 336-336-150.432-336-336-336z m-55.712 402.432v-117.408l96.608 58.704-96.608 58.704z"  horiz-adv-x="1024" />

    
    <glyph glyph-name="icon-test" unicode="&#58933;" d="M896 768H128a32 32 0 0 1-32-32v-576a32 32 0 0 1 32-32h288v64H160V704h704v-512h-256c-8.832 0-16.832-3.584-22.656-9.376l-159.968-160 45.248-45.248L621.248 128H896a32 32 0 0 1 32 32V736a32 32 0 0 1-32 32M560 448a48 48 0 1 1-95.968 0.032A48 48 0 0 1 560 448M240 448a48 48 0 1 1 95.968-0.032A48 48 0 0 1 240 448M784 448a48 48 0 1 1-95.968 0.032A48 48 0 0 1 784 448"  horiz-adv-x="1024" />

    
    <glyph glyph-name="icon-test1" unicode="&#58942;" d="M832 96c0-20.704-10.048-38.976-25.376-50.688A63.456 63.456 0 0 0 768 32c-35.296 0-64 28.704-64 64 0 2.752 0.48 5.408 0.8 8.096A64.032 64.032 0 0 0 768 160c32.16 0 58.592-23.936 63.072-54.88 0.416-3.008 0.928-5.984 0.928-9.12M256 320c-35.296 0-64 28.704-64 64s28.704 64 64 64a63.616 63.616 0 0 0 61.152-46.176c1.664-5.696 2.848-11.584 2.848-17.824 0-6.24-1.184-12.128-2.848-17.824A63.648 63.648 0 0 0 256 320M704 672c0 35.296 28.704 64 64 64 14.56 0 27.84-5.088 38.624-13.312 15.328-11.712 25.376-29.984 25.376-50.688 0-3.136-0.512-6.112-0.928-9.12A63.904 63.904 0 0 0 768 608a64.032 64.032 0 0 0-63.2 55.904C704.48 666.592 704 669.248 704 672m64-448a126.944 126.944 0 0 1-85.312-33.216l-300.672 173.6A123.84 123.84 0 0 1 384 384c0 6.72-0.96 13.184-1.984 19.616l300.672 173.6A126.944 126.944 0 0 1 768 544a128 128 0 0 1 125.12 154.688 127.2 127.2 0 0 1-29.088 57.152A127.168 127.168 0 0 1 768 800a128 128 0 0 1-128-128c0-14.528 2.944-28.224 7.392-41.248l-291.104-168.096C332.832 492.48 296.864 512 256 512a128 128 0 0 1 0-256c40.864 0 76.832 19.52 100.288 49.344l291.104-168.096A126.912 126.912 0 0 1 640 96a128 128 0 0 1 128-128 127.168 127.168 0 0 1 96.032 44.16A127.2 127.2 0 0 1 896 96a128 128 0 0 1-128 128"  horiz-adv-x="1024" />

    
    <glyph glyph-name="icon-test2" unicode="&#58961;" d="M816.512 527.808l-55.36-32A285.632 285.632 0 0 0 800 352c0-158.816-129.184-288-288-288-106.368 0-199.264 58.144-249.12 144.16A285.856 285.856 0 0 0 224 352c0 158.816 129.216 288 288 288v-96l192 128-192 128v-96C317.92 704 160 546.112 160 352c0-64.064 17.504-124 47.52-175.808C268.48 71.04 381.984 0 512 0c194.112 0 352 157.92 352 352 0 64.064-17.472 124-47.488 175.808"  horiz-adv-x="1024" />

    
    <glyph glyph-name="icon-test3" unicode="&#58965;" d="M512 0C299.936 0 128 171.936 128 384S299.936 768 512 768s384-171.936 384-384-171.936-384-384-384m0 832C264.96 832 64 631.04 64 384s200.96-448 448-448 448 200.96 448 448S759.04 832 512 832M511.68 192a48 48 0 1 1 0-96 48 48 0 0 1 0 96M512 640l-0.288-0.032A160.16 160.16 0 0 1 352 480h64a96.096 96.096 0 0 0 95.712 95.968L512 576c52.928 0 96-43.072 96-96s-43.072-96-96-96l-0.288 0.032V384H480v-128h64v67.264A160.224 160.224 0 0 1 672 480c0 88.224-71.776 160-160 160"  horiz-adv-x="1024" />

    
    <glyph glyph-name="icon-test4" unicode="&#58967;" d="M512 108.608l-212.64 212.64-96.832 96.832-9.12 9.12A127.04 127.04 0 0 0 160 512.64c0 70.624 57.408 128 128 128 32.8 0 62.432-12.704 85.12-33.088l9.76-9.76 96.544-96.512L512 468.64l32.576 32.64 96.544 96.512 9.76 9.76A126.912 126.912 0 0 0 736 640.64c70.592 0 128-57.408 128-128a127.04 127.04 0 0 0-33.408-85.472l-9.12-9.12-96.832-96.832L512 108.608zM736 704.64c-47.584 0-90.944-17.6-124.48-46.272l-0.16 0.16-2.144-2.176-19.232-19.232L512 559.168 434.016 637.12l-19.232 19.2-2.144 2.208-0.16-0.16A190.944 190.944 0 0 1 288 704.64a192 192 0 0 1-192-192c0-58.176 25.984-110.176 66.848-145.408L512 18.112l349.152 349.12A191.488 191.488 0 0 1 928 512.704a192 192 0 0 1-192 192z"  horiz-adv-x="1024" />

    
    <glyph glyph-name="icon-test5" unicode="&#58968;" d="M736 704.64c-47.584 0-90.944-17.6-124.48-46.272l-0.16 0.192-2.144-2.208-19.232-19.2L512 559.136l-77.984 78.016-19.232 19.2-2.144 2.208-0.16-0.192A190.944 190.944 0 0 1 288 704.672a192 192 0 0 1-192-192c0-58.208 25.984-110.208 66.848-145.408L512 18.08l349.152 349.184A191.488 191.488 0 0 1 928 512.64a192 192 0 0 1-192 192"  horiz-adv-x="1024" />

    
    <glyph glyph-name="icon-test6" unicode="&#58969;" d="M212.16 446.432l161.696-138.048-47.072-216.448 186.08 110.336 186.144-110.272-47.2 216.384 161.568 138.08-205.824 23.68-94.72 197.792-94.72-197.824-205.92-23.68zM512 800.032c3.808 0 7.584-2.24 9.024-6.592l129.6-270.784 288.8-33.184c9.184 0 12.992-11.744 5.568-17.152L720 280l65.184-299.52a9.504 9.504 0 0 0-14.592-10.656L512 123.104l-258.592-153.28a9.536 9.536 0 0 0-14.592 10.624L304 280l-224.992 192.32a9.472 9.472 0 0 0 5.6 17.152l288.736 33.184 129.6 270.784A9.344 9.344 0 0 0 512 800z"  horiz-adv-x="1024" />

    
    <glyph glyph-name="icon-test7" unicode="&#58970;" d="M512 800c3.808 0 7.584-2.176 8.992-6.56l129.664-270.784 288.736-33.184c9.216 0 13.024-11.744 5.6-17.152L720 280l65.184-299.52a9.536 9.536 0 0 0-9.056-12.48 9.344 9.344 0 0 0-5.536 1.856L512 123.072l-258.592-153.216a9.344 9.344 0 0 0-5.536-1.856 9.536 9.536 0 0 0-9.056 12.48L304 280l-224.992 192.32a9.472 9.472 0 0 0 5.6 17.152l288.736 33.184 129.632 270.784A9.312 9.312 0 0 0 512 800"  horiz-adv-x="1024" />

    
    <glyph glyph-name="icon-test8" unicode="&#58971;" d="M790.624 594.752L745.376 640 512 406.624 278.624 640 233.376 594.752 512 316.128zM192 160h640v64H192z"  horiz-adv-x="1024" />

    
    <glyph glyph-name="icon-test9" unicode="&#58972;" d="M233.376 173.248L278.624 128 512 361.376 745.376 128l45.248 45.248L512 451.872zM192 544h640V608H192z"  horiz-adv-x="1024" />

    
    <glyph glyph-name="icon-test10" unicode="&#58973;" d="M384 640l256-256-256-256z"  horiz-adv-x="1024" />

    
    <glyph glyph-name="icon-test11" unicode="&#58974;" d="M768 512l-256-256-256 256z"  horiz-adv-x="1024" />

    
    <glyph glyph-name="Dyanjing" unicode="&#59563;" d="M705.941333 722.741333l74.666667-32a32 32 0 0 0 16.202667-15.466666l160-330.666667c0.362667-0.757333 0.693333-1.525333 0.992-2.293333a74.453333 74.453333 0 0 0 7.168-41.536l-22.154667-192A74.666667 74.666667 0 0 0 868.64 42.666667h-243.946667a74.666667 74.666667 0 0 0-74.176 66.112L543.370667 170.666667h-62.752l-7.146667-61.898667A74.666667 74.666667 0 0 0 399.317333 42.666667h-243.946666a74.666667 74.666667 0 0 0-74.176 66.112l-22.154667 192a74.314667 74.314667 0 0 0 7.114667 41.408l0.256 0.64 0.8 1.781333 160 330.666667a32 32 0 0 0 14.112 14.485333l2.08 0.981333 74.666666 32a32 32 0 0 0 26.922667-58.026666l-1.706667-0.789334-63.68-27.296-122.24-252.618666 264.106667-0.010667a74.666667 74.666667 0 0 0 74.176-83.221333L488 234.666667h47.978667l-7.616 66.101333A74.666667 74.666667 0 0 0 602.538667 384h264.106666l-122.24 252.629333-63.68 27.296a32 32 0 0 0 25.216 58.816zM421.461333 320H133.205333a10.666667 10.666667 0 0 1-10.592-11.893333l22.154667-192a10.666667 10.666667 0 0 1 10.592-9.44h243.946667a10.666667 10.666667 0 0 1 10.592 9.44l22.154666 192A10.666667 10.666667 0 0 1 421.461333 320z m469.333334 0H602.538667a10.666667 10.666667 0 0 1-10.592-11.893333l22.154666-192a10.666667 10.666667 0 0 1 10.592-9.44h243.946667a10.666667 10.666667 0 0 1 10.592 9.44l22.154667 192A10.666667 10.666667 0 0 1 890.794667 320z"  horiz-adv-x="1024" />

    
    <glyph glyph-name="caidan" unicode="&#59564;" d="M512 810.666667c71.477333 0 159.68-57.546667 229.258667-147.018667C817.845333 565.173333 864 440.021333 864 309.333333c0-211.808-148.501333-352-352-352S160 97.525333 160 309.333333c0 130.688 46.144 255.84 122.741333 354.314667C352.32 753.12 440.522667 810.666667 512 810.666667z m0-64c-48.213333 0-120.096-46.912-178.741333-122.314667C265.109333 536.746667 224 425.237333 224 309.333333c0-175.616 119.050667-288 288-288s288 112.384 288 288c0 115.904-41.109333 227.402667-109.258667 315.018667C632.096 699.765333 560.213333 746.666667 512 746.666667z m-74.666667-522.666667a53.333333 53.333333 0 1 0 0-106.666667 53.333333 53.333333 0 0 0 0 106.666667z m-96 128a42.666667 42.666667 0 1 0 0-85.333333 42.666667 42.666667 0 0 0 0 85.333333z"  horiz-adv-x="1024" />

    
    <glyph glyph-name="dianhua" unicode="&#59565;" d="M446.272 322.56a509.653333 509.653333 0 0 0-81.92 100.650667c67.786667 30.474667 112.138667 93.461333 112.138667 169.792C476.48 701.408 388.96 789.333333 280.906667 789.333333 170.058667 789.333333 85.333333 707.253333 85.333333 593.002667c0-158.250667 82.56-328.554667 200.618667-439.658667 100.010667-94.122667 258.986667-161.738667 413.461333-174.570667 0.832-0.074667 1.674667-0.106667 2.517334-0.106666h41.162666a30.517333 30.517333 0 0 1 0 61.045333h-39.872c-140.672 11.978667-286.026667 73.930667-375.456 158.090667-106.410667 100.16-181.408 254.837333-181.408 395.2 0 80.106667 56.981333 135.285333 134.549334 135.285333 74.282667 0 134.549333-60.533333 134.549333-135.285333 0-60.309333-40.896-107.989333-103.008-123.349334a30.517333 30.517333 0 0 1-19.786667-43.658666c27.573333-53.312 66.037333-104.426667 111.573334-147.690667 51.264-48.693333 109.941333-86.112 172.053333-108.16a30.506667 30.506667 0 0 1 40.362667 24.064c10.453333 67.093333 61.621333 114.026667 126.442666 114.026667 74.272 0 134.549333-60.544 134.549334-135.285334 0-25.578667-7.04-50.026667-20.149334-71.253333a30.528 30.528 0 0 1 51.925334-32.074667A196.096 196.096 0 0 1 938.666667 172.949333c0 108.394667-87.530667 196.330667-195.573334 196.330667-83.072 0-151.210667-52.384-177.621333-128.864-42.368 19.552-82.773333 47.541333-119.2 82.144z"  horiz-adv-x="1024" />

    
    <glyph glyph-name="dianzan" unicode="&#59566;" d="M621.674667 487.978667c16.618667 74.24 28.224 127.936 34.837333 161.194666C673.152 732.906667 629.941333 810.666667 544.298667 810.666667c-77.226667 0-116.010667-38.378667-138.88-115.093334l-0.586667-2.24c-13.728-62.058667-34.72-110.165333-62.506667-144.586666a158.261333 158.261333 0 0 0-119.733333-58.965334l-21.909333-0.469333C148.437333 488.192 106.666667 445.184 106.666667 392.501333V74.666667c0-64.8 52.106667-117.333333 116.394666-117.333334h412.522667c84.736 0 160.373333 53.568 189.12 133.92l85.696 239.584c21.802667 60.96-9.536 128.202667-70.005333 150.186667a115.552 115.552 0 0 1-39.488 6.954667H621.674667zM544.256 746.666667c39.253333 0 59.498667-36.48 49.888-84.928-7.573333-38.144-21.984-104.426667-43.221333-198.666667-4.512-20.021333 10.56-39.093333 30.912-39.093333h218.666666c6.101333 0 12.16-1.066667 17.909334-3.168 27.445333-9.984 41.674667-40.554667 31.776-68.266667l-85.568-239.573333C744.981333 57.973333 693.301333 21.333333 635.402667 21.333333H223.498667C194.314667 21.333333 170.666667 45.216 170.666667 74.666667V392.501333c0 17.866667 14.144 32.448 31.829333 32.821334l21.866667 0.469333a221.12 221.12 0 0 1 167.381333 82.56c34.346667 42.602667 59.146667 99.306667 74.869333 169.877333C482.101333 729.664 499.552 746.666667 544.266667 746.666667z"  horiz-adv-x="1024" />

    
    <glyph glyph-name="mima" unicode="&#59570;" d="M288 512v74.666667c0 123.722667 100.266667 224 224 224s224-100.224 224-224v-74.666667h10.677333C811.445333 512 864 459.402667 864 394.666667v-320c0-64.821333-52.469333-117.333333-117.322667-117.333334H277.333333C212.554667-42.666667 160 9.930667 160 74.666667V394.666667c0 64.821333 52.469333 117.333333 117.322667 117.333333H288z m64 0h320v74.666667c0 88.426667-71.605333 160-160 160-88.384 0-160-71.626667-160-160v-74.666667zM224 394.666667v-320c0-29.397333 23.914667-53.333333 53.322667-53.333334H746.666667A53.269333 53.269333 0 0 1 800 74.666667V394.666667c0 29.397333-23.914667 53.333333-53.322667 53.333333H277.333333A53.269333 53.269333 0 0 1 224 394.666667z"  horiz-adv-x="1024" />

    
    <glyph glyph-name="nan" unicode="&#59571;" d="M795.189333 719.082667H682.666667a32 32 0 1 0 0 64h192a32 32 0 0 0 32-32v-192a32 32 0 1 0-64 0V676.053333l-105.866667-105.866666A350.613333 350.613333 0 0 0 821.333333 341.333333c0-194.4-157.6-352-352-352S117.333333 146.933333 117.333333 341.333333s157.6 352 352 352a350.538667 350.538667 0 0 0 221.6-78.506666l104.256 104.256zM469.333333 53.333333c159.061333 0 288 128.938667 288 288S628.394667 629.333333 469.333333 629.333333 181.333333 500.394667 181.333333 341.333333s128.938667-288 288-288z"  horiz-adv-x="1024" />

    
    <glyph glyph-name="nv" unicode="&#59572;" d="M485.333333 128v43.765333C321.077333 185.312 192 322.912 192 490.666667 192 667.402667 335.264 810.666667 512 810.666667c176.736 0 320-143.264 320-320 0-164.106667-123.52-299.349333-282.666667-317.845334V128H640a32 32 0 0 0 0-64h-90.666667v-77.333333a32 32 0 0 0-64 0V64H384a32 32 0 0 0 0 64h101.333333zM512 234.666667c141.386667 0 256 114.613333 256 256S653.386667 746.666667 512 746.666667 256 632.053333 256 490.666667s114.613333-256 256-256z"  horiz-adv-x="1024" />

    
    <glyph glyph-name="shijian" unicode="&#59576;" d="M878.08 164.725333a32 32 0 0 0-54.88 32.938667A360.789333 360.789333 0 0 1 874.666667 384c0 200.298667-162.368 362.666667-362.666667 362.666667S149.333333 584.298667 149.333333 384s162.368-362.666667 362.666667-362.666667a360.789333 360.789333 0 0 1 186.314667 51.445334 32 32 0 0 0 32.928-54.88A424.778667 424.778667 0 0 0 512-42.666667C276.362667-42.666667 85.333333 148.362667 85.333333 384S276.362667 810.666667 512 810.666667s426.666667-191.029333 426.666667-426.666667c0-78.293333-21.152-153.568-60.586667-219.274667z m-548.704 81.898667L480 397.258667V576a32 32 0 0 0 64 0v-192a32 32 0 0 0-9.376-22.624l-160-160a32 32 0 1 0-45.248 45.248z"  horiz-adv-x="1024" />

    
    <glyph glyph-name="xiangji" unicode="&#59580;" d="M269.44 640l23.296 75.381333A74.666667 74.666667 0 0 0 364.074667 768h295.850666a74.666667 74.666667 0 0 0 71.338667-52.618667L754.56 640H821.333333c64.8 0 117.333333-52.533333 117.333334-117.333333v-426.666667c0-64.8-52.533333-117.333333-117.333334-117.333333H202.666667c-64.8 0-117.333333 52.533333-117.333334 117.333333V522.666667c0 64.8 52.533333 117.333333 117.333334 117.333333h66.773333z m23.605333-64H202.666667a53.333333 53.333333 0 0 1-53.333334-53.333333v-426.666667a53.333333 53.333333 0 0 1 53.333334-53.333333h618.666666a53.333333 53.333333 0 0 1 53.333334 53.333333V522.666667a53.333333 53.333333 0 0 1-53.333334 53.333333h-90.378666a32 32 0 0 0-30.570667 22.549333l-30.272 97.930667a10.666667 10.666667 0 0 1-10.186667 7.52H364.074667a10.666667 10.666667 0 0 1-10.186667-7.52l-30.272-97.92A32 32 0 0 0 293.045333 576zM512 170.666667c-88.362667 0-160 71.637333-160 160 0 88.362667 71.637333 160 160 160 88.362667 0 160-71.637333 160-160 0-88.362667-71.637333-160-160-160z m0 64a96 96 0 1 1 0 192 96 96 0 0 1 0-192z"  horiz-adv-x="1024" />

    
    <glyph glyph-name="yuyin" unicode="&#59584;" d="M544 44.053333V-10.666667a32 32 0 0 0-64 0v54.72C294.688 60.266667 149.333333 215.829333 149.333333 405.333333v21.333334a32 32 0 0 0 64 0v-21.333334c0-164.949333 133.717333-298.666667 298.666667-298.666666s298.666667 133.717333 298.666667 298.666666v21.333334a32 32 0 0 0 64 0v-21.333334c0-189.514667-145.354667-345.066667-330.666667-361.28zM298.666667 597.44C298.666667 715.2 394.165333 810.666667 512 810.666667c117.781333 0 213.333333-95.541333 213.333333-213.226667v-192.213333C725.333333 287.466667 629.834667 192 512 192c-117.781333 0-213.333333 95.541333-213.333333 213.226667V597.44z m64 0v-192.213333C362.666667 322.88 429.557333 256 512 256c82.496 0 149.333333 66.805333 149.333333 149.226667V597.44C661.333333 679.786667 594.442667 746.666667 512 746.666667c-82.496 0-149.333333-66.805333-149.333333-149.226667z"  horiz-adv-x="1024" />

    
    <glyph glyph-name="zhiwen" unicode="&#59586;" d="M749.290667 115.2a32 32 0 0 0-64.021334 0V249.6c0 98.965333-80.266667 179.2-179.274666 179.2-99.008 0-179.264-80.234667-179.264-179.2v-115.2a32 32 0 0 0-64.032 0V249.6c0 134.314667 108.928 243.2 243.306666 243.2 134.357333 0 243.285333-108.885333 243.285334-243.2v-134.4z m149.930666 500.906667a32 32 0 0 0-4.042666-45.077334 32.021333 32.021333 0 0 0-45.088 4.032C765.418667 676.373333 640.608 736 505.994667 736 377.386667 736 257.6 681.6 173.12 587.968a32.021333 32.021333 0 0 0-45.226667-2.325333 32 32 0 0 0-2.314666 45.194666C222.08 737.770667 359.072 800 505.994667 800c153.792 0 296.512-68.202667 393.226666-183.893333zM883.733333 268.8a32 32 0 0 0-64.032 0c0 130.218667-80.128 245.461333-199.402666 292.138667a32 32 0 1 0 23.338666 59.594666C787.264 564.341333 883.733333 425.578667 883.733333 268.8zM505.994667 646.4a32 32 0 1 0 0-64c-173.258667 0-313.717333-140.405333-313.717334-313.6a32 32 0 0 0-64.021333 0c0 208.533333 169.12 377.6 377.738667 377.6z m0-371.2a25.6 25.6 0 0 1-25.6-25.066667l0.192-5.152a1953.109333 1953.109333 0 0 0 1.205333-61.845333c0.010667-19.882667-0.448-36.48-1.525333-49.066667-3.573333-41.877333-15.082667-78.410667-32.106667-109.493333a222.293333 222.293333 0 0 0-23.584-35.061333c-5.173333-6.229333-9.472-10.666667-12.437333-13.333334a32.021333 32.021333 0 0 0-45.205334 2.442667 32 32 0 0 0 2.432 45.184c-0.074667-0.064 0.256 0.245333 0.938667 0.96 1.429333 1.461333 3.093333 3.328 4.96 5.568a158.602667 158.602667 0 0 1 16.746667 24.970667c12.864 23.488 21.674667 51.477333 24.469333 84.202666 0.885333 10.378667 1.301333 25.386667 1.290667 43.594667a1643.466667 1643.466667 0 0 1-1.173334 59.573333l-0.213333 5.578667-0.021333 1.344c0 49.493333 40.128 89.6 89.632 89.6a89.621333 89.621333 0 0 0 89.632-89.6v-171.050667a32 32 0 0 0-64.021334 0V249.6a25.6 25.6 0 0 1-25.6 25.6z"  horiz-adv-x="1024" />

    
    <glyph glyph-name="auto" unicode="&#59115;" d="M689.536 704c26.816 0 50.794667-16.64 60.202667-41.706667l78.08-207.978666 67.754666 39.125333 27.562667-47.786667-50.709333-29.269333a64.213333 64.213333 0 0 0 27.157333-52.522667v-202.368a64.298667 64.298667 0 0 0-64.298667-64.298666h-27.648V21.333333h-55.146666v75.861334H255.957333V21.333333H200.853333v75.861334H173.184a64.298667 64.298667 0 0 0-64.32 64.298666v202.368a64.213333 64.213333 0 0 0 27.2 52.522667L85.333333 445.653333l27.584 47.786667 67.733334-39.104 78.08 207.957333A64.298667 64.298667 0 0 0 318.933333 704h370.602667z m145.728-342.954667H173.184v-199.552h662.101333v199.552z m-556.288-50.090666a41.386667 41.386667 0 1 0 0-82.752 41.386667 41.386667 0 0 0 0 82.752z m455.125333 0a41.386667 41.386667 0 1 0 0-82.752 41.386667 41.386667 0 0 0 0 82.752z m-44.565333 328.746666H318.933333l-79.402666-211.52h529.386666l-79.36 211.52z m-79.573333-46.037333v-62.058667h-206.869334v62.08h206.869334z"  horiz-adv-x="1024" />

    
    <glyph glyph-name="all" unicode="&#59119;" d="M490.666667 362.666667v-256a64 64 0 0 0-64-64h-192a64 64 0 0 0-64 64v192a64 64 0 0 0 64 64h256z m298.666666 0a64 64 0 0 0 64-64v-192a64 64 0 0 0-64-64h-192a64 64 0 0 0-64 64V362.666667h256z m-362.666666-64h-192v-192h192v192z m362.666666 0h-192v-192h192v192zM426.666667 725.333333a64 64 0 0 0 64-64v-256H234.666667a64 64 0 0 0-64 64v192a64 64 0 0 0 64 64h192z m266.666666 0a160 160 0 1 0 0-320 160 160 0 0 0 0 320zM426.666667 661.333333h-192v-192h192v192z m266.666666 0a96 96 0 1 1 0-192 96 96 0 0 1 0 192z"  horiz-adv-x="1024" />

    
    <glyph glyph-name="code" unicode="&#59122;" d="M541.141333 627.136l61.717334-16.938667-132.394667-482.474666-61.717333 16.938666 132.394666 482.474667zM329.002667 597.333333l44.885333-45.610666-175.36-172.586667 175.04-167.573333-44.266667-46.229334L106.666667 378.496 329.002667 597.333333z m355.882666 0l222.336-218.837333L684.586667 165.333333l-44.266667 46.229334 175.018667 167.573333L640 551.722667 684.885333 597.333333z"  horiz-adv-x="1024" />

    
    <glyph glyph-name="copy" unicode="&#59123;" d="M576 512a64 64 0 0 0 64-64v-341.333333a64 64 0 0 0-64-64H234.666667a64 64 0 0 0-64 64V448a64 64 0 0 0 64 64h341.333333z m0-64H234.666667v-341.333333h341.333333V448z m-64-192v-64H298.666667v64h213.333333zM789.333333 725.333333a64 64 0 0 0 64-64v-341.333333a64 64 0 0 0-64-64h-106.666666v64h106.666666V661.333333H448v-106.666666h-64v106.666666a64 64 0 0 0 64 64h341.333333zM512 362.666667v-64H298.666667v64h213.333333z"  horiz-adv-x="1024" />

    
    <glyph glyph-name="history" unicode="&#59128;" d="M512 736c194.410667 0 352-157.589333 352-352S706.410667 32 512 32l-2.538667 0.106667c-91.477333 7.274667-165.738667 38.08-221.44 91.989333L288 53.333333h-64V256H405.333333v-64h-92.842666c46.250667-56.917333 112.490667-88.725333 200.768-96l6.677333 0.106667C675.328 100.309333 800 227.605333 800 384c0 159.061333-128.938667 288-288 288S224 543.061333 224 384h-64c0 194.410667 157.589333 352 352 352zM469.333333 576h64v-160h160v-64H469.333333V576z"  horiz-adv-x="1024" />

    
    <glyph glyph-name="editor" unicode="&#59126;" d="M694.037333 682.666667v-64H234.666667v-469.333334h512V384h64v-234.666667a64 64 0 0 0-64-64H234.666667a64 64 0 0 0-64 64V618.666667a64 64 0 0 0 64 64h459.370666z m136.746667-24.234667l45.098667-45.397333-343.722667-341.290667 0.128-0.128-46.592-1.578667 1.322667 47.274667 0.085333-0.106667 343.68 341.226667z"  horiz-adv-x="1024" />

    
    <glyph glyph-name="data" unicode="&#59129;" d="M469.333333 744.192v-64.554667c-144.746667-20.693333-256-145.173333-256-295.637333 0-164.949333 133.717333-298.666667 298.666667-298.666667 150.464 0 274.944 111.253333 295.637333 256h64.554667c-21.12-180.181333-174.336-320-360.192-320-200.298667 0-362.666667 162.368-362.666667 362.666667 0 185.856 139.818667 339.072 320 360.192zM512 746.666667c197.973333 0 358.933333-158.656 362.602667-355.776L874.666667 384H512V746.666667z m64-70.869334V448h227.797333a299.093333 299.093333 0 0 1-220.885333 226.197333L576 675.797333z"  horiz-adv-x="1024" />

    
    <glyph glyph-name="pic" unicode="&#59135;" d="M817.365333 682.666667a64 64 0 0 0 64-64v-469.333334a64 64 0 0 0-64-64h-597.333333a64 64 0 0 0-64 64V618.666667a64 64 0 0 0 64 64h597.333333z m0-64h-597.333333v-469.333334h597.333333V618.666667zM746.666667 524.885333v-63.957333c-100.608 1.450667-163.306667-30.293333-193.493334-94.229333l-2.304-5.12-2.858666-6.357334c-44.010667-95.146667-129.088-142.464-249.322667-140.842666v64c96.234667-1.6 157.930667 32.384 190.933333 103.04l2.538667 5.632 2.624 5.845333c41.664 89.664 127.488 133.333333 251.882667 131.989333z m-397.696 17.237334a42.666667 42.666667 0 1 0 0-85.333334 42.666667 42.666667 0 0 0 0 85.333334z"  horiz-adv-x="1024" />

    
    <glyph glyph-name="Notvisible" unicode="&#59134;" d="M786.645333 714.581333l45.269334-45.269333-573.226667-573.226667-45.269333 45.269334 573.226666 573.226666z m-18.794666-167.637333c36.138667-34.56 71.146667-76.949333 105.024-127.146667a64 64 0 0 0 2.410666-67.712l-2.410666-3.882666-6.058667-8.853334C759.786667 184.234667 641.493333 106.666667 512 106.666667c-51.136 0-100.501333 12.096-148.138667 36.266666l48.213334 48.213334c32.768-13.738667 66.069333-20.48 99.925333-20.48 105.770667 0 206.037333 65.749333 301.952 204.757333l5.866667 8.576-5.888 8.597333c-29.994667 43.477333-60.416 79.786667-91.306667 109.12l45.226667 45.226667zM512 661.333333c45.013333 0 88.64-9.365333 130.944-28.096l-49.408-49.429333A253.226667 253.226667 0 0 1 512 597.333333c-105.770667 0-206.037333-65.749333-301.952-204.757333L204.181333 384l5.888-8.597333c25.856-37.461333 52.010667-69.589333 78.506667-96.554667l-45.205333-45.205333c-31.616 32.106667-62.378667 70.293333-92.245334 114.56a64 64 0 0 0-2.410666 67.712l2.410666 3.882666 6.058667 8.853334C264.213333 583.765333 382.506667 661.333333 512 661.333333z m133.696-236.586666a141.482667 141.482667 0 0 0-180.074667-180.074667l56.96 56.96a77.525333 77.525333 0 0 1 66.176 66.176l56.938667 56.96zM512 519.872c5.610667 0 11.157333-0.32 16.597333-0.96l-157.098666-157.12A141.482667 141.482667 0 0 0 512 519.850667z"  horiz-adv-x="1024" />

    
    <glyph glyph-name="play" unicode="&#59137;" d="M512 746.666667c200.298667 0 362.666667-162.368 362.666667-362.666667s-162.368-362.666667-362.666667-362.666667S149.333333 183.701333 149.333333 384 311.701333 746.666667 512 746.666667z m0-64c-164.949333 0-298.666667-133.717333-298.666667-298.666667s133.717333-298.666667 298.666667-298.666667 298.666667 133.717333 298.666667 298.666667-133.717333 298.666667-298.666667 298.666667z m-64-141.312a42.666667 42.666667 0 0 0 22.741333-6.570667l176.533334-111.232a42.666667 42.666667 0 0 0 0.32-71.978667l-176.533334-113.429333A42.666667 42.666667 0 0 0 405.333333 274.026667v224.64a42.666667 42.666667 0 0 0 42.666667 42.666666z m21.333333-81.322667v-146.922667l115.456 74.176L469.333333 460.032z"  horiz-adv-x="1024" />

    
    <glyph glyph-name="QRcode" unicode="&#59140;" d="M491.925333 363.925333V42.666667H170.666667V363.925333h321.258666zM597.333333 106.666667v-64h-64v64h64z m256 85.333333v-149.333333h-128v64h64v85.333333h64z m-425.408 107.925333H234.666667V106.666667h193.258666v193.258666zM661.333333 298.666667v-128h64v-64h-128v192h64z m-277.333333-42.666667v-106.666667h-106.666667v106.666667h106.666667z m405.333333 0v-64h-64v64h64z m64 106.666667v-106.666667h-64v42.666667h-64v64h128z m-256 0v-64h-64v64h64zM491.925333 725.333333v-321.258666H170.666667V725.333333h321.258666zM853.333333 725.333333v-321.258666H532.074667V725.333333H853.333333z m-425.408-64H234.666667v-193.258666h193.258666V661.333333zM789.333333 661.333333h-193.258666v-193.258666H789.333333V661.333333z m-405.333333-42.666666v-106.666667h-106.666667v106.666667h106.666667z m362.666667 0v-106.666667h-106.666667v106.666667h106.666667z"  horiz-adv-x="1024" />

    
    <glyph glyph-name="prompt-fill" unicode="&#59184;" d="M512 746.666667c200.298667 0 362.666667-162.368 362.666667-362.666667s-162.368-362.666667-362.666667-362.666667S149.333333 183.701333 149.333333 384 311.701333 746.666667 512 746.666667z m32-298.666667h-64v-256h64V448z m0 106.666667h-64v-64h64v64z"  horiz-adv-x="1024" />

    
    <glyph glyph-name="add" unicode="&#59202;" d="M512 746.666667c200.298667 0 362.666667-162.368 362.666667-362.666667s-162.368-362.666667-362.666667-362.666667S149.333333 183.701333 149.333333 384 311.701333 746.666667 512 746.666667z m0-64c-164.949333 0-298.666667-133.717333-298.666667-298.666667s133.717333-298.666667 298.666667-298.666667 298.666667 133.717333 298.666667 298.666667-133.717333 298.666667-298.666667 298.666667z m32-106.666667v-160H704v-64h-160V192h-64v160.021333L320 352v64l160 0.021333V576h64z"  horiz-adv-x="1024" />

    
    <glyph glyph-name="arrow-right" unicode="&#59203;" d="M593.450667 383.872L360.064 617.386667l45.290667 45.226666 278.613333-278.762666L405.333333 105.386667l-45.226666 45.269333z"  horiz-adv-x="1024" />

    
    <glyph glyph-name="arrow-left" unicode="&#59204;" d="M641.28 617.386667l-45.226667 45.226666-278.634666-278.762666 278.613333-278.485334 45.248 45.269334-233.365333 233.237333z"  horiz-adv-x="1024" />

    
    <glyph glyph-name="all1" unicode="&#59205;" d="M490.666667 362.666667v-256a64 64 0 0 0-64-64h-192a64 64 0 0 0-64 64v192a64 64 0 0 0 64 64h256z m298.666666 0a64 64 0 0 0 64-64v-192a64 64 0 0 0-64-64h-192a64 64 0 0 0-64 64V362.666667h256z m-362.666666-64h-192v-192h192v192z m362.666666 0h-192v-192h192v192zM426.666667 725.333333a64 64 0 0 0 64-64v-256H234.666667a64 64 0 0 0-64 64v192a64 64 0 0 0 64 64h192z m266.666666 0a160 160 0 1 0 0-320 160 160 0 0 0 0 320zM426.666667 661.333333h-192v-192h192v192z m266.666666 0a96 96 0 1 1 0-192 96 96 0 0 1 0 192z"  horiz-adv-x="1024" />

    
    <glyph glyph-name="arrow-up" unicode="&#59206;" d="M500.8 434.090667L267.306667 200.704l-45.226667 45.269333 278.741333 278.613334L779.306667 245.973333l-45.248-45.226666z"  horiz-adv-x="1024" />

    
    <glyph glyph-name="ashbin" unicode="&#59207;" d="M341.013333 501.333333l27.754667-393.450666h271.829333l27.733334 393.450666h64.106666L704.426667 103.381333a64 64 0 0 0-63.829334-59.498666H368.768a64 64 0 0 0-63.829333 59.52L276.885333 501.333333h64.128z m139.306667-19.818666v-298.666667h-64v298.666667h64z m117.013333 0v-298.666667h-64v298.666667h64zM181.333333 608h640v-64h-640v64z m453.482667 106.666667v-64h-256v64h256z"  horiz-adv-x="1024" />

    
    <glyph glyph-name="bad" unicode="&#59208;" d="M581.674667 42.666667c6.72 0 18.538667 1.429333 27.584 4.352 44.544 14.442667 70.186667 61.76 59.797333 109.12l-1.066667 4.437333-39.701333 148.906667h157.269333c19.093333 0 37.973333 7.082667 50.773334 21.248a64.853333 64.853333 0 0 1 15.616 57.109333l-1.066667 4.352-82.922667 295.253333a51.882667 51.882667 0 0 1-46.08 37.76L718.037333 725.333333H298.666667v-400.832c84.949333-18.389333 209.194667-244.373333 209.194666-244.373333 17.664-23.957333 39.082667-37.461333 73.813334-37.461333zM234.666667 320V725.333333H170.666667v-405.333333h64z m347.008-213.333333c-9.6 0-13.546667 1.109333-18.453334 6.613333l-1.706666 2.005333-8.064 14.08-8.64 14.613334a1342.848 1342.848 0 0 1-63.189334 96.426666c-24.512 33.92-48.597333 63.146667-72.234666 86.464-15.722667 15.509333-31.146667 28.437333-46.72 38.464V661.333333h346.154666L789.333333 374.485333c0-0.277333-0.128-0.448-0.490666-0.853333 0.298667 0.341333-0.853333-0.149333-3.285334-0.149333H544.981333l61.162667-229.44c4.394667-16.426667-3.626667-31.936-16.597333-36.138667a46.016 46.016 0 0 0-7.893334-1.237333z"  horiz-adv-x="1024" />

    
    <glyph glyph-name="attachent" unicode="&#59209;" d="M787.968 423.722667L505.173333 139.264a151.488 151.488 0 0 0-215.168 0c-59.52 59.882667-59.52 157.077333 0 216.96l287.018667 288.725333a91.349333 91.349333 0 0 0 129.770667 0 93.098667 93.098667 0 0 0 0-131.072L428.032 233.493333a31.701333 31.701333 0 0 0-45.098667 0 32.64 32.64 0 0 0 0 45.909334l250.133334 251.648-45.397334 45.12-250.133333-251.648a96.64 96.64 0 0 1 0-136.170667 95.701333 95.701333 0 0 1 135.893333 0l278.72 280.405333a157.098667 157.098667 0 0 1 0 221.312 155.349333 155.349333 0 0 1-220.522666 0L244.608 401.365333c-84.373333-84.864-84.373333-222.378667 0-307.221333a215.488 215.488 0 0 1 305.92 0l282.837333 284.458667-45.397333 45.12z"  horiz-adv-x="1024" />

    
    <glyph glyph-name="browse" unicode="&#59210;" d="M512 661.333333c131.946667 0 252.245333-80.512 360.874667-241.536a64 64 0 0 0 2.410666-67.712l-2.410666-3.882666-6.058667-8.853334C759.786667 184.234667 641.493333 106.666667 512 106.666667c-131.946667 0-252.245333 80.512-360.874667 241.536a64 64 0 0 0-2.410666 67.712l2.410666 3.882666 6.058667 8.853334C264.213333 583.765333 382.506667 661.333333 512 661.333333z m0-64c-105.770667 0-206.037333-65.749333-301.952-204.757333L204.181333 384l5.888-8.597333C306.069333 236.352 406.314667 170.666667 512 170.666667c105.770667 0 206.037333 65.749333 301.952 204.757333l5.866667 8.576-5.888 8.597333C717.930667 531.648 617.685333 597.333333 512 597.333333z m0-77.482666a141.482667 141.482667 0 1 0 0-282.944 141.482667 141.482667 0 0 0 0 282.944z m0-64a77.482667 77.482667 0 1 1 0-154.944 77.482667 77.482667 0 0 1 0 154.944z"  horiz-adv-x="1024" />

    
    <glyph glyph-name="calendar" unicode="&#59211;" d="M234.666667 682.666667h57.706666v-63.978667L234.666667 618.666667v-106.666667h554.666666v106.666667h-55.232v64H789.333333a64 64 0 0 0 64-64v-512a64 64 0 0 0-64-64H234.666667a64 64 0 0 0-64 64V618.666667a64 64 0 0 0 64 64z m554.666666-234.666667H234.666667v-341.333333h554.666666V448z m-384-192v-64h-106.666666v64h106.666666z m160 0v-64h-106.666666v64h106.666666z m160 0v-64h-106.666666v64h106.666666z m-320 128v-64h-106.666666v64h106.666666z m160 0v-64h-106.666666v64h106.666666z m160 0v-64h-106.666666v64h106.666666zM697.728 725.333333v-106.666666h-64.021333V725.333333h64z m-104.170667-42.666666v-64l-160.618666 0.021333V682.666667h160.618666z m-197.013333 42.666666v-106.666666h-64V725.333333h64z"  horiz-adv-x="1024" />

    
    <glyph glyph-name="calculator" unicode="&#59212;" d="M789.333333 725.333333a64 64 0 0 0 64-64v-554.666666a64 64 0 0 0-64-64H234.666667a64 64 0 0 0-64 64V661.333333a64 64 0 0 0 64 64h554.666666z m0-277.333333H234.666667v-341.333333h554.666666V448zM565.333333 234.666667v-64H298.666667v64h266.666666z m160 0v-64h-106.666666v64h106.666666z m-320 128v-64h-106.666666v64h106.666666z m160 0v-64h-106.666666v64h106.666666z m160 0v-64h-106.666666v64h106.666666z m64 298.666666H234.666667v-149.333333h554.666666v149.333333z"  horiz-adv-x="1024" />

    
    <glyph glyph-name="category" unicode="&#59213;" d="M256 161.898667v-64H170.666667v64h85.333333z m597.333333 0v-64H298.666667v64h554.666666zM256 402.816v-64H170.666667v64h85.333333z m597.333333 0v-64H298.666667v64h554.666666zM256 643.754667v-64H170.666667v64h85.333333z m597.333333 0v-64H298.666667v64h554.666666z"  horiz-adv-x="1024" />

    
    <glyph glyph-name="close" unicode="&#59214;" d="M282.517333 682.624l-45.354666-45.162667L489.472 384 237.162667 130.538667l45.354666-45.162667L534.613333 338.645333l252.096-253.269333 45.354667 45.162667-252.288 253.44 252.288 253.482666-45.354667 45.162667L534.613333 429.376l-252.096 253.226667z"  horiz-adv-x="1045" />

    
    <glyph glyph-name="cart-Empty" unicode="&#59215;" d="M330.666667 128a53.333333 53.333333 0 1 0 0-106.666667 53.333333 53.333333 0 0 0 0 106.666667z m384 0a53.333333 53.333333 0 1 0 0-106.666667 53.333333 53.333333 0 0 0 0 106.666667zM94.762667 736h54.741333a96 96 0 0 0 92.906667-71.786667l1.024-4.394666L256.64 597.333333h0.213333l42.88-205.333333L332.224 234.666667h402.218667l61.653333 298.666666H313.813333l-13.376 64h495.68a64 64 0 0 0 62.677334-76.949333l-61.653334-298.666667A64 64 0 0 0 734.442667 170.666667H332.224a64 64 0 0 0-62.677333 51.050666l-60.586667 293.418667-0.405333-0.085333-27.733334 131.562666a32 32 0 0 1-28.309333 25.237334l-2.986667 0.149333H94.741333v64h54.741334z"  horiz-adv-x="1024" />

    
    <glyph glyph-name="code1" unicode="&#59216;" d="M541.141333 627.136l61.717334-16.938667-132.394667-482.474666-61.717333 16.938666 132.394666 482.474667zM329.002667 597.333333l44.885333-45.610666-175.36-172.586667 175.04-167.573333-44.266667-46.229334L106.666667 378.496 329.002667 597.333333z m355.882666 0l222.336-218.837333L684.586667 165.333333l-44.266667 46.229334 175.018667 167.573333L640 551.722667 684.885333 597.333333z"  horiz-adv-x="1024" />

    
    <glyph glyph-name="confirm" unicode="&#59217;" d="M725.333333 682.666667v-64h21.312H234.666667v-469.333334h512V384.021333L810.666667 384v64.042667V149.333333a64 64 0 0 0-64-64H234.666667a64 64 0 0 0-64 64V618.666667a64 64 0 0 0 64 64h490.666666z m105.152-41.6l45.696-44.8-315.626666-322.090667-156.842667 161.365333 45.909333 44.608 111.125334-114.346666L830.485333 641.066667z m-41.173333 25.301333c0.896-0.789333 1.749333-1.6 2.581333-2.432l-2.56-2.581333v5.013333z"  horiz-adv-x="1024" />

    
    <glyph glyph-name="clock" unicode="&#59218;" d="M512 746.666667c200.298667 0 362.666667-162.368 362.666667-362.666667s-162.368-362.666667-362.666667-362.666667S149.333333 183.701333 149.333333 384 311.701333 746.666667 512 746.666667z m0-64c-164.949333 0-298.666667-133.717333-298.666667-298.666667s133.717333-298.666667 298.666667-298.666667 298.666667 133.717333 298.666667 298.666667-133.717333 298.666667-298.666667 298.666667z m32-78.485334v-201.130666h140.757333v-64H512a32 32 0 0 0-32 32V604.16h64z"  horiz-adv-x="1024" />

    
    <glyph glyph-name="cut" unicode="&#59219;" d="M309.056 705.066667l212.992-298.090667 0.213333 0.277333 39.210667-54.848-0.213333-0.298666 69.013333-96.64a125.162667 125.162667 0 1 0-31.552-65.92l-77.162667 108.032-80.298666-110.357334c0.490667-3.84 0.810667-7.744 0.96-11.690666l0.085333-4.693334a125.162667 125.162667 0 1 0-31.594667 83.157334l71.637334 98.453333-225.365334 315.413333 52.074667 37.205334z m413.44-473.066667a61.162667 61.162667 0 1 1 0-122.304 61.162667 61.162667 0 0 1 0 122.304z m-405.333333 0a61.162667 61.162667 0 1 1 0-122.304 61.162667 61.162667 0 0 1 0 122.304zM739.328 705.301333l51.733333-37.674666-203.093333-278.890667-39.232 54.869333L739.328 705.28z"  horiz-adv-x="1024" />

    
    <glyph glyph-name="double-arro-right" unicode="&#59220;" d="M533.333333 662.613333l278.613334-278.485333L533.333333 105.386667l-45.248 45.226666 233.386667 233.514667-233.386667 233.258667L533.333333 662.613333z m-234.666666 0l278.613333-278.485333L298.666667 105.386667l-45.248 45.226666 233.386666 233.514667-233.386666 233.258667L298.666667 662.613333z"  horiz-adv-x="1024" />

    
    <glyph glyph-name="double-arrow-left" unicode="&#59221;" d="M724.053333 662.613333l45.226667-45.248-233.365333-233.258666 233.386666-233.493334-45.269333-45.226666-278.613333 278.741333 278.613333 278.485333z m-234.666666 0l45.226666-45.248-233.365333-233.258666 233.386667-233.493334-45.269334-45.226666L210.773333 384.106667l278.613334 278.485333z"  horiz-adv-x="1024" />

    
    <glyph glyph-name="discount" unicode="&#59222;" d="M599.253333 761.28l220.842667-23.808a64 64 0 0 0 56.789333-56.768l23.786667-220.842667a64 64 0 0 0-18.368-52.096L510.933333 36.416a64 64 0 0 0-90.517333 0L175.808 281.045333a64 64 0 0 0 0 90.496L547.157333 742.890667a64 64 0 0 0 52.117334 18.389333z m-6.826666-63.637333L221.034667 326.293333 465.706667 81.664l371.328 371.349333-23.786667 220.821334-220.842667 23.808zM652.309333 618.666667a96 96 0 1 0 0-192 96 96 0 0 0 0 192z m0-64a32 32 0 1 1 0-64 32 32 0 0 1 0 64z"  horiz-adv-x="1045" />

    
    <glyph glyph-name="download" unicode="&#59223;" d="M704 554.666667h64a64 64 0 0 0 64-64v-362.666667a64 64 0 0 0-64-64H256a64 64 0 0 0-64 64V490.666667a64 64 0 0 0 64 64h64v-64h-64v-362.666667h512V490.666667h-64v64z m-154.794667 212.266666l0.042667-347.456 74.005333 74.026667 45.226667-45.248-150.826667-150.848-150.848 150.826667 45.248 45.269333 73.173334-73.173333V766.933333h64z"  horiz-adv-x="1024" />

    
    <glyph glyph-name="ellipsis" unicode="&#59224;" d="M269.333333 448a56 56 0 1 0 0-112 56 56 0 0 0 0 112z m242.773334 0a56 56 0 1 0 0-112 56 56 0 0 0 0 112z m242.773333 0a56 56 0 1 0 0-112 56 56 0 0 0 0 112z"  horiz-adv-x="1024" />

    
    <glyph glyph-name="email" unicode="&#59225;" d="M874.666667 520.810667V149.333333a64 64 0 0 0-64-64H213.333333a64 64 0 0 0-64 64V520.810667l64-54.250667V149.333333h597.333334V466.56l64 54.250667zM810.666667 682.666667a64.789333 64.789333 0 0 0 22.826666-4.181334 63.616 63.616 0 0 0 26.794667-19.413333 64.32 64.32 0 0 0 9.344-15.466667c2.773333-6.570667 4.48-13.696 4.906667-21.184L874.666667 618.666667v-21.333334L553.536 323.413333a64 64 0 0 0-79.893333-2.538666l-3.178667 2.56L149.333333 597.333333v21.333334a63.786667 63.786667 0 0 0 35.136 57.130666A63.872 63.872 0 0 0 213.333333 682.666667h597.333334z m-9.6-64h-578.133334L512 372.117333 801.066667 618.666667z"  horiz-adv-x="1024" />

    
    <glyph glyph-name="earth" unicode="&#59226;" d="M512 725.333333c200.362667 0 362.666667-162.304 362.666667-362.666666s-162.304-362.666667-362.666667-362.666667S149.333333 162.304 149.333333 362.666667 311.637333 725.333333 512 725.333333z m0-64c-143.893333 0-263.914667-101.610667-292.309333-237.013333h34.730666c8.597333-0.128 16.554667-0.853333 30.144-2.624l30.442667-4.074667c7.786667-0.96 13.610667-1.493333 18.602667-1.642666l4.757333-0.064c3.712 0.042667 6.485333 0.341333 8.213333 0.746666l-0.277333-0.021333 1.536 1.429333c29.248 25.706667 82.666667 24.533333 120.042667 4.032l4.224-2.453333c13.909333-8.490667 21.994667-18.496 35.648-39.552l4.309333-6.634667c10.133333-15.36 14.293333-19.370667 15.552-19.370666 51.605333 0 101.717333-36.501333 101.717333-84.928 0-23.978667-15.850667-37.930667-37.098666-43.648-6.016-1.621333-11.370667-2.56-19.008-3.285334l-8.533334-0.682666-21.76-1.386667-6.186666-0.576-4.928-0.64c-2.154667-63.936-23.466667-115.285333-76.373334-115.285333-12.288 0-21.333333 1.216-35.306666 4.053333l-10.602667 2.005333c-10.602667 1.642667-17.941333 0.810667-31.36-4.096l-6.549333-2.24c-1.728-0.554667-3.477333-1.066667-5.226667-1.578666A297.322667 297.322667 0 0 1 512 64c165.034667 0 298.666667 133.632 298.666667 298.666667 0 19.242667-1.813333 38.037333-5.290667 56.277333-3.477333-1.450667-7.04-2.581333-10.666667-3.413333-1.024-3.754667-2.197333-8.768-3.626666-15.509334l-3.584-16.96-3.072-13.333333c-11.904-47.701333-28.650667-73.045333-68.458667-73.045333-47.957333 0-68.714667 33.024-71.04 79.466666a205.738667 205.738667 0 0 0-0.234667 8.704l0.085334 9.386667 0.405333 11.285333c-3.946667 2.197333-12.714667 6.997333-19.2 10.688l-5.44 3.2c-34.986667 21.653333-55.210667 50.944-55.210667 95.658667 0 46.890667 24.832 86.4 71.744 118.890667A297.514667 297.514667 0 0 1 512 661.333333z m-73.194667-296.32c-16.085333 9.813333-43.434667 10.453333-48.576 5.12-17.6-18.282667-35.754667-21.248-74.517333-17.045333l-11.093333 1.322667-31.317334 4.202666a215.466667 215.466667 0 0 1-16.512 1.6l-4.970666 0.106667-38.464 0.021333 0.042666-4.352a297.493333 297.493333 0 0 1 73.813334-190.037333c25.514667-7.936 48.149333-7.872 68.949333-0.234667 26.325333 9.642667 45.354667 10.709333 68.885333 6.272l11.861334-2.346666c7.637333-1.450667 12.437333-1.984 18.56-1.984 2.730667 0 12.522667 27.264 12.522666 62.4 0 24.234667 15.104 40.533333 36.842667 48 11.456 3.925333 22.634667 5.354667 41.92 6.506666l3.2 0.213334c-6.378667 3.114667-14.186667 5.333333-22.336 5.333333-32.170667 0-47.68 15.168-71.381333 51.797333l-5.994667 9.130667c-5.845333 8.661333-9.216 12.586667-11.434667 13.952z m274.922667-4.096c0.042667-0.298667 0.213333-0.362667 0.448-0.362666l0.810667 0.170666-0.853334 0.085334-0.405333 0.106666z m-15.573333 235.392l-0.917334-0.490666c-46.72-24.896-67.904-52.010667-67.904-80.746667 0-19.861333 7.189333-30.272 24.896-41.216l1.066667-0.64 25.152-14.165333c18.048-11.029333 29.013333-23.466667 29.013333-44.138667l-0.042666-2.496-0.704-22.4v-5.610667l0.149333-5.077333c0.661333-13.397333 1.536-17.28 4.48-18.304l0.384-0.106667 0.042667 0.213334a3.626667 3.626667 0 0 0 0.213333 0.576l0.426667 0.853333 1.152 2.197333c2.986667 6.272 5.824 15.68 8.853333 29.397334l5.12 24.106666c2.773333 12.608 5.056 20.736 8.277333 28.437334 7.68 18.197333 20.181333 31.061333 41.258667 31.061333 1.386667 0 3.434667 0.768 6.72 3.221333a35.2 35.2 0 0 1 0.384 0.298667 299.178667 299.178667 0 0 1-88.042667 115.029333z m-351.36-179.626666l-0.213334-0.021334-0.277333-0.021333-1.258667-1.237333 1.344 1.066666 0.405334 0.213334z"  horiz-adv-x="1024" />

    
    <glyph glyph-name="filter" unicode="&#59227;" d="M764.266667 682.666667a64 64 0 0 0 49.557333-104.512L615.466667 335.573333v-273.386666l-54.336 24.704V370.218667L764.266667 618.666667H243.925333l200.192-253.205334v-225.450666l-57.941333 26.304v169.237333l-192.448 243.413333A64 64 0 0 0 243.925333 682.666667h520.341334z"  horiz-adv-x="1024" />

    
    <glyph glyph-name="folder" unicode="&#59228;" d="M460.650667 704a64 64 0 0 0 62.485333-50.133333l3.093333-13.866667H789.333333a64 64 0 0 0 64-64v-448a64 64 0 0 0-64-64H234.666667a64 64 0 0 0-64 64V640a64 64 0 0 0 64 64h225.984z m0-64H234.666667v-512h554.666666V469.333333H498.602667l-37.952 170.666667zM746.666667 256v-64H277.333333v64h469.333334z m42.666666 320H540.437333l9.493334-42.666667H789.333333v42.666667z"  horiz-adv-x="1024" />

    
    <glyph glyph-name="history1" unicode="&#59229;" d="M512 736c194.410667 0 352-157.589333 352-352S706.410667 32 512 32l-2.538667 0.106667c-91.477333 7.274667-165.738667 38.08-221.44 91.989333L288 53.333333h-64V256H405.333333v-64h-92.842666c46.250667-56.917333 112.490667-88.725333 200.768-96l6.677333 0.106667C675.328 100.309333 800 227.605333 800 384c0 159.061333-128.938667 288-288 288S224 543.061333 224 384h-64c0 194.410667 157.589333 352 352 352zM469.333333 576h64v-160h160v-64H469.333333V576z"  horiz-adv-x="1024" />

    
    <glyph glyph-name="good" unicode="&#59230;" d="M581.674667 725.333333c6.72 0 18.538667-1.429333 27.584-4.352 44.544-14.442667 70.186667-61.76 59.797333-109.12l-1.066667-4.437333-39.701333-148.906667h157.269333c19.093333 0 37.973333-7.082667 50.773334-21.248 14.293333-15.829333 19.861333-36.778667 15.616-57.109333l-1.066667-4.352-82.922667-295.253333a51.882667 51.882667 0 0 0-46.08-37.76l-3.84-0.128H298.666667V443.498667c84.949333 18.389333 209.194667 244.373333 209.194666 244.373333C525.525333 711.829333 546.944 725.333333 581.674667 725.333333zM234.666667 448v-405.333333H170.666667V448h64z m347.008 213.333333c-9.6 0-13.546667-1.109333-18.453334-6.613333l-1.706666-2.005333-8.064-14.08-8.64-14.613334a1342.848 1342.848 0 0 0-63.189334-96.426666c-24.512-33.92-48.597333-63.146667-72.234666-86.464-15.722667-15.509333-31.146667-28.437333-46.72-38.464V106.666667h346.154666L789.333333 393.514667c0 0.277333-0.128 0.448-0.490666 0.853333 0.298667-0.341333-0.853333 0.149333-3.285334 0.149333H544.981333l61.162667 229.44c4.394667 16.426667-3.626667 31.936-16.597333 36.138667a46.016 46.016 0 0 1-7.893334 1.237333z"  horiz-adv-x="1024" />

    
    <glyph glyph-name="hot" unicode="&#59231;" d="M448.533333 740.202667c67.968-53.098667 115.498667-104.618667 142.592-154.602667 25.664-47.36 35.968-95.808 30.912-145.344l-0.981333-8.256 5.034667 4.117333a143.829333 143.829333 0 0 1 40.533333 57.536l2.218667 6.122667 6.336 19.029333c67.776-46.037333 101.674667-124.010667 101.674666-233.898666 0-164.821333-144.426667-270.037333-263.125333-270.037334-118.72 0-253.866667 70.506667-275.733333 218.069334-21.845333 147.541333 68.757333 216.426667 130.474666 312.533333 41.173333 64.064 67.84 128.981333 80.064 194.730667z m27.754667-127.744a672.576 672.576 0 0 0-53.973333-101.568l-6.826667-10.453334c-6.933333-10.346667-14.293333-20.629333-23.744-33.365333l-33.749333-45.013333c-52.416-71.786667-66.666667-112.405333-56.682667-179.754667 14.72-99.562667 105.706667-163.434667 212.416-163.434667 99.562667 0 199.125333 91.669333 199.125333 206.037334 0 51.221333-8.106667 92.010667-23.978666 123.712-6.784-7.765333-14.186667-15.104-22.208-21.973334l-131.029334-107.456 21.994667 161.450667c5.269333 38.656-2.048 76.202667-22.762667 114.453333-10.88 20.074667-26.346667 41.109333-46.442666 62.933334l-6.869334 7.296-5.269333-12.864z"  horiz-adv-x="1024" />

    
    <glyph glyph-name="link" unicode="&#59232;" d="M618.24 456.618667a152.746667 152.746667 0 0 0 0-216l-135.893333-135.893334a163.370667 163.370667 0 1 0-231.04 231.04l66.922666 66.944 45.269334-45.269333-66.944-66.944a99.370667 99.370667 0 1 1 140.522666-140.522667l135.893334 135.893334a88.746667 88.746667 0 0 1 0 125.482666z m182.528 197.589333a163.370667 163.370667 0 0 0 0-231.04L733.866667 356.224l-45.269334 45.248 66.944 66.944a99.370667 99.370667 0 1 1-140.522666 140.522667l-135.893334-135.893334a88.746667 88.746667 0 0 1 0-125.482666l-45.269333-45.269334a152.746667 152.746667 0 0 0 0 216l135.893333 135.893334a163.370667 163.370667 0 0 0 231.04 0z"  horiz-adv-x="1024" />

    
    <glyph glyph-name="loading" unicode="&#59233;" d="M533.333333 213.333333v-192h-64v192h64z m-175.317333 72.618667l45.269333-45.269333-135.765333-135.744-45.248 45.226666 135.744 135.786667z m286.634667 0l135.744-135.765333-45.226667-45.248-135.786667 135.744 45.269334 45.269333zM330.666667 416v-64h-192v64h192z m533.333333 0v-64h-192v64h192z m-128.853333 247.061333l45.248-45.226666-135.744-135.786667-45.269334 45.269333 135.765334 135.744z m-467.626667 0l135.765333-135.744-45.269333-45.269333-135.744 135.765333 45.226667 45.248zM533.333333 746.666667v-192h-64V746.666667h64z"  horiz-adv-x="1024" />

    
    <glyph glyph-name="move" unicode="&#59234;" d="M545.28 277.333333v-135.04l51.093333 49.578667 44.586667-45.909333-126.442667-122.752-128.682666 122.517333 44.117333 46.357333 51.349333-48.853333-0.021333 134.122667h64z m204.757333 235.626667l122.752-126.442667-122.517333-128.682666-46.357333 44.117333 48.853333 51.349333H618.666667v64h135.04l-49.578667 51.072 45.909333 44.586667z m-476.202666 0l45.909333-44.586667-49.6-51.072H405.333333v-64h-134.229333l48.853333-51.349333-46.336-44.117333-122.517333 128.682666 122.730667 126.442667zM514.517333 744.789333l126.442667-122.752-44.586667-45.909333-51.072 49.578667L545.28 490.666667h-64v134.101333l-51.328-48.853333-44.117333 46.357333 128.682666 122.517333z"  horiz-adv-x="1024" />

    
    <glyph glyph-name="map" unicode="&#59235;" d="M512 768c164.949333 0 298.666667-129.941333 298.666667-290.261333 0-3.392-0.064-6.784-0.213334-10.24-3.669333-95.914667-58.24-203.776-147.797333-313.173334a1260.714667 1260.714667 0 0 0-139.818667-144.768l-10.837333-9.322666-10.837333 9.322666-13.013334 11.626667a1260.714667 1260.714667 0 0 0-126.805333 133.162667c-89.557333 109.376-144.128 217.237333-147.818667 313.173333-0.128 3.413333-0.192 6.826667-0.192 10.24 0 158.08 130.069333 286.677333 291.904 290.176L512 768z m0-64c-130.005333 0-234.666667-101.717333-234.666667-226.261333 0-2.56 0.042667-5.141333 0.149334-7.765334 2.944-76.608 48.554667-171.52 133.376-275.093333a1184.682667 1184.682667 0 0 1 86.613333-94.506667l14.528-14.016 14.506667 14.016a1184.682667 1184.682667 0 0 1 86.634666 94.506667c84.821333 103.573333 130.432 198.485333 133.376 275.093333 0.106667 2.624 0.149333 5.205333 0.149334 7.765334C746.666667 602.282667 642.005333 704 512 704z m0-74.666667a149.333333 149.333333 0 1 0 0-298.666666 149.333333 149.333333 0 0 0 0 298.666666z m0-64a85.333333 85.333333 0 1 1 0-170.666666 85.333333 85.333333 0 0 1 0 170.666666z"  horiz-adv-x="1024" />

    
    <glyph glyph-name="password" unicode="&#59236;" d="M512.704 789.333333a181.333333 181.333333 0 0 0 181.333333-181.333333l-0.021333-53.333333H789.333333a64 64 0 0 0 64-64v-384a64 64 0 0 0-64-64H234.666667a64 64 0 0 0-64 64V490.666667a64 64 0 0 0 64 64h96.682666v53.333333a181.333333 181.333333 0 0 0 181.333334 181.333333zM789.333333 490.666667H234.666667v-384h554.666666V490.666667z m-239.210666-106.666667v-170.666667h-64v170.666667h64zM512.704 725.333333a117.333333 117.333333 0 0 1-117.333333-117.333333V554.666667h234.666666v53.333333a117.333333 117.333333 0 0 1-117.333333 117.333333z"  horiz-adv-x="1024" />

    
    <glyph glyph-name="Notvisible1" unicode="&#59237;" d="M786.645333 714.581333l45.269334-45.269333-573.226667-573.226667-45.269333 45.269334 573.226666 573.226666z m-18.794666-167.637333c36.138667-34.56 71.146667-76.949333 105.024-127.146667a64 64 0 0 0 2.410666-67.712l-2.410666-3.882666-6.058667-8.853334C759.786667 184.234667 641.493333 106.666667 512 106.666667c-51.136 0-100.501333 12.096-148.138667 36.266666l48.213334 48.213334c32.768-13.738667 66.069333-20.48 99.925333-20.48 105.770667 0 206.037333 65.749333 301.952 204.757333l5.866667 8.576-5.888 8.597333c-29.994667 43.477333-60.416 79.786667-91.306667 109.12l45.226667 45.226667zM512 661.333333c45.013333 0 88.64-9.365333 130.944-28.096l-49.408-49.429333A253.226667 253.226667 0 0 1 512 597.333333c-105.770667 0-206.037333-65.749333-301.952-204.757333L204.181333 384l5.888-8.597333c25.856-37.461333 52.010667-69.589333 78.506667-96.554667l-45.205333-45.205333c-31.616 32.106667-62.378667 70.293333-92.245334 114.56a64 64 0 0 0-2.410666 67.712l2.410666 3.882666 6.058667 8.853334C264.213333 583.765333 382.506667 661.333333 512 661.333333z m133.696-236.586666a141.482667 141.482667 0 0 0-180.074667-180.074667l56.96 56.96a77.525333 77.525333 0 0 1 66.176 66.176l56.938667 56.96zM512 519.872c5.610667 0 11.157333-0.32 16.597333-0.96l-157.098666-157.12A141.482667 141.482667 0 0 0 512 519.850667z"  horiz-adv-x="1024" />

    
    <glyph glyph-name="operation" unicode="&#59238;" d="M494.122667 618.666667a98.026667 98.026667 0 0 0 98.026666-98.026667v-186.24h166.613334a64 64 0 0 0 64-64v-249.642667H376.533333l-126.72 108.629334a103.146667 103.146667 0 0 0-14.464 141.44l3.946667 4.778666a103.381333 103.381333 0 0 0 141.930667 13.013334l4.565333-3.84 10.346667-9.173334V520.64A98.026667 98.026667 0 0 0 494.122667 618.666667z m0-64c-18.773333 0-34.005333-15.232-34.005334-34.026667v-387.562667l-116.864 103.893334-3.029333 2.432a39.381333 39.381333 0 0 1-52.778667-5.952l-2.453333-3.093334a39.146667 39.146667 0 0 1 6.442667-52.394666l95.893333-82.197334L466.005333 21.333333h292.906667v85.333334h-0.149333v163.754666h-230.613334v250.24c0 18.773333-15.232 34.005333-34.026666 34.005334zM490.666667 746.666667c117.824 0 213.333333-95.509333 213.333333-213.333334a212.693333 212.693333 0 0 0-63.594667-151.957333V533.333333H640a149.333333 149.333333 0 1 1-298.538667-6.4l0.021334-146.112A212.693333 212.693333 0 0 0 277.333333 533.333333c0 117.824 95.509333 213.333333 213.333334 213.333334z"  horiz-adv-x="1024" />

    
    <glyph glyph-name="pin" unicode="&#59239;" d="M631.637333 717.568a64 64 0 0 0 19.84-13.504l167.616-167.786667a64 64 0 0 0-19.370666-103.744l-59.392-26.304-111.424-111.552-8.832-122.709333a64 64 0 0 0-109.098667-40.64l-108.202667 108.309333-184.384-185.237333-45.354666 45.162667 184.490666 185.344-111.936 112.021333a64 64 0 0 0 40.512 109.056l126.208 9.429333 109.44 109.568 25.706667 59.306667a64 64 0 0 0 84.181333 33.28z m-25.450666-58.730667l-30.549334-70.464-134.826666-135.04-149.973334-11.157333 265.408-265.6 10.538667 146.474667 136.704 136.874666 70.336 31.146667-167.637333 167.765333z"  horiz-adv-x="1024" />

    
    <glyph glyph-name="play1" unicode="&#59240;" d="M512 746.666667c200.298667 0 362.666667-162.368 362.666667-362.666667s-162.368-362.666667-362.666667-362.666667S149.333333 183.701333 149.333333 384 311.701333 746.666667 512 746.666667z m0-64c-164.949333 0-298.666667-133.717333-298.666667-298.666667s133.717333-298.666667 298.666667-298.666667 298.666667 133.717333 298.666667 298.666667-133.717333 298.666667-298.666667 298.666667z m-64-141.312a42.666667 42.666667 0 0 0 22.741333-6.570667l176.533334-111.232a42.666667 42.666667 0 0 0 0.32-71.978667l-176.533334-113.429333A42.666667 42.666667 0 0 0 405.333333 274.026667v224.64a42.666667 42.666667 0 0 0 42.666667 42.666666z m21.333333-81.322667v-146.922667l115.456 74.176L469.333333 460.032z"  horiz-adv-x="1024" />

    
    <glyph glyph-name="print" unicode="&#59241;" d="M704 384v-384H320V384h384z m-64-64H384v-256h256V320z m0 469.333333a64 64 0 0 0 64-64v-64h106.666667a64 64 0 0 0 64-64v-362.666666a64 64 0 0 0-64-64h-64v64h64V597.333333H213.333333v-362.666666h64v-64h-64a64 64 0 0 0-64 64V597.333333a64 64 0 0 0 64 64h106.666667V725.333333a64 64 0 0 0 64 64h256zM426.666667 533.333333v-64h-149.333334v64h149.333334z m213.333333 192H384v-64h256V725.333333z"  horiz-adv-x="1024" />

    
    <glyph glyph-name="prompt" unicode="&#59242;" d="M512 746.666667c200.298667 0 362.666667-162.368 362.666667-362.666667s-162.368-362.666667-362.666667-362.666667S149.333333 183.701333 149.333333 384 311.701333 746.666667 512 746.666667z m0-64c-164.949333 0-298.666667-133.717333-298.666667-298.666667s133.717333-298.666667 298.666667-298.666667 298.666667 133.717333 298.666667 298.666667-133.717333 298.666667-298.666667 298.666667z m32-234.666667v-256h-64V448h64z m0 106.666667v-64h-64v64h64z"  horiz-adv-x="1024" />

    
    <glyph glyph-name="reeor" unicode="&#59243;" d="M512 746.666667c200.298667 0 362.666667-162.368 362.666667-362.666667s-162.368-362.666667-362.666667-362.666667S149.333333 183.701333 149.333333 384 311.701333 746.666667 512 746.666667z m0-64c-164.949333 0-298.666667-133.717333-298.666667-298.666667s133.717333-298.666667 298.666667-298.666667 298.666667 133.717333 298.666667 298.666667-133.717333 298.666667-298.666667 298.666667z m113.130667-140.266667l45.269333-45.269333L557.226667 384l113.152-113.130667-45.269334-45.269333L512 338.773333l-113.130667-113.152-45.269333 45.269334L466.773333 384l-113.152 113.109333 45.269334 45.269334L512 429.269333l113.109333 113.130667z"  horiz-adv-x="1024" />

    
    <glyph glyph-name="reduce" unicode="&#59244;" d="M512 746.666667c200.298667 0 362.666667-162.368 362.666667-362.666667s-162.368-362.666667-362.666667-362.666667S149.333333 183.701333 149.333333 384 311.701333 746.666667 512 746.666667z m0-64c-164.949333 0-298.666667-133.717333-298.666667-298.666667s133.717333-298.666667 298.666667-298.666667 298.666667 133.717333 298.666667 298.666667-133.717333 298.666667-298.666667 298.666667z m-192-266.666667h384v-64H320v64z"  horiz-adv-x="1024" />

    
    <glyph glyph-name="resonserate" unicode="&#59245;" d="M516.288 725.333333c4.330667 0 8.512-1.621333 11.733333-4.544L868.906667 410.666667c6.549333-5.973333 7.552-15.786667 2.688-22.954667l-1.450667-1.877333c-0.277333-0.298667-114.325333-104.085333-342.165333-311.381334a17.386667 17.386667 0 0 0-24.661334 1.237334 17.642667 17.642667 0 0 0-4.522666 11.797333v179.904c-16.213333-0.426667-32.170667-1.962667-47.744-4.586667l-4.693334-0.810666c-129.066667-23.552-232.810667-98.304-267.306666-223.936l-2.624 5.696C166.186667 66.88 149.333333 114.474667 149.333333 161.962667c0 198.058667 154.922667 359.68 349.482667 368.874666V707.754667c0 9.706667 7.829333 17.578667 17.493333 17.578666z m46.528-122.730666v-132.821334l-60.992-2.88c-140.416-6.613333-255.36-109.44-282.453333-243.946666 56.277333 51.541333 130.261333 86.4 215.978666 102.058666l5.12 0.896a404.309333 404.309333 0 0 0 56.746667 5.44l65.6 1.664v-140.373333l225.28 205.013333-225.28 204.949334z"  horiz-adv-x="1024" />

    
    <glyph glyph-name="remind" unicode="&#59246;" d="M576 136.810667a64 64 0 0 0-127.893333-3.754667L448 136.810667h128zM512 725.333333c108.586667 0 200.234667-72.725333 200.234667-168.106666v-202.837334l65.877333-118.784c25.706667-29.738667 4.394667-75.669333-35.072-75.669333H280.96c-39.466667 0-60.778667 45.930667-35.072 75.669333l65.877333 118.784v202.858667C311.765333 652.586667 403.413333 725.333333 512 725.333333z m0-64c-77.44 0-136.234667-48.512-136.234667-104.106666v-219.392l-63.168-113.92h398.805334l-63.168 113.92V557.226667C648.234667 612.821333 589.418667 661.333333 512 661.333333z"  horiz-adv-x="1024" />

    
    <glyph glyph-name="return" unicode="&#59247;" d="M486.592 401.472l-45.226667-45.269333-171.989333 171.882666 171.946667 172.032 45.269333-45.226666-86.826667-86.869334h195.413334c122.88 0 222.826667-97.962667 226.069333-220.032l0.085333-6.122666c0-124.885333-101.248-226.133333-226.133333-226.133334H199.466667v64H595.2a162.133333 162.133333 0 1 1 0 324.266667l-211.2 0.021333 102.592-102.549333z"  horiz-adv-x="1024" />

    
    <glyph glyph-name="save" unicode="&#59248;" d="M683.84 725.333333L853.333333 551.296V106.666667a64 64 0 0 0-64-64H234.666667a64 64 0 0 0-64 64V661.333333a64 64 0 0 0 64 64h449.173333zM320 661.354667L234.666667 661.333333v-554.666666l85.333333 0.021333V362.666667h384v-255.978667L789.333333 106.666667V525.269333l-85.333333 87.637334V512H320v149.354667zM640 298.666667H384v-191.978667h256V298.666667z m-42.666667-64v-64h-170.666666v64h170.666666z m42.666667 426.666666H384v-85.333333h256v85.333333z"  horiz-adv-x="1024" />

    
    <glyph glyph-name="scanning" unicode="&#59249;" d="M234.666667 256v-149.333333h159.978666v-64H234.666667a64 64 0 0 0-64 64v149.333333h64z m618.666666 0v-149.333333a64 64 0 0 0-64-64h-160.021333v64H789.333333v149.333333h64z m-85.333333 160v-64H256v64h512zM789.333333 725.333333a64 64 0 0 0 64-64v-149.333333h-64v149.333333h-160V725.333333H789.333333zM394.666667 725.333333v-64H234.666667v-149.333333H170.666667v149.333333a64 64 0 0 0 64 64h160z"  horiz-adv-x="1024" />

    
    <glyph glyph-name="security" unicode="&#59250;" d="M528.490667 744.512l277.333333-73.962667A64 64 0 0 0 853.333333 608.704v-350.741333a64 64 0 0 0-26.154666-51.626667l-277.333334-203.370667a64 64 0 0 0-75.690666 0l-277.333334 203.392A64 64 0 0 0 170.666667 257.962667V608.704a64 64 0 0 0 47.509333 61.845333l277.333333 73.962667a64 64 0 0 0 32.981334 0zM512 682.666667l-277.333333-73.962667v-350.741333l277.333333-203.392 277.333333 203.392V608.704L512 682.666667z m126.826667-124.373334l45.013333-45.461333-229.12-226.816-114.666667 114.624 45.226667 45.269333 69.674667-69.632 183.872 182.037334z"  horiz-adv-x="1024" />

    
    <glyph glyph-name="seleted" unicode="&#59251;" d="M235.946667 423.061333l-45.226667-45.312 210.090667-209.514666 432.362666 427.690666-45.013333 45.482667-387.157333-382.976z"  horiz-adv-x="1024" />

    
    <glyph glyph-name="service" unicode="&#59252;" d="M673.194667 482.026667h78.72c-14.890667 116.053333-116.629333 205.824-239.914667 205.824-123.306667 0-225.024-89.792-239.914667-205.824h78.72v-264.661334H234.666667a85.333333 85.333333 0 0 0-85.333334 85.333334v93.994666a85.376 85.376 0 0 0 60.693334 81.706667l0.917333 0.256C224.490667 628.842667 354.090667 746.666667 512 746.666667c157.888 0 287.509333-117.802667 301.056-268.010667l0.917333-0.256A85.376 85.376 0 0 0 874.666667 396.693333v-93.994666a85.333333 85.333333 0 0 0-85.333334-85.333334l-55.722666 0.021334v-40.384a106.709333 106.709333 0 0 0-74.368-101.696A78.506667 78.506667 0 0 0 584.704 21.333333h-115.178667a78.421333 78.421333 0 0 0 0 156.821334h115.178667c27.050667 0 50.901333-13.696 64.981333-34.517334a63.744 63.744 0 0 1 23.381334 45.76l0.128 3.754667v288.853333zM584.704 114.133333h-115.178667a14.421333 14.421333 0 0 1 0-28.821333h115.178667a14.421333 14.421333 0 0 1 0 28.821333zM286.805333 418.026667H234.666667a21.333333 21.333333 0 0 1-21.333334-21.333334v-93.994666a21.333333 21.333333 0 0 1 21.333334-21.333334h52.138666v136.661334z m502.528 0h-52.138666v-136.661334H789.333333a21.333333 21.333333 0 0 1 21.333334 21.333334v93.994666a21.333333 21.333333 0 0 1-21.333334 21.333334z"  horiz-adv-x="1024" />

    
    <glyph glyph-name="share" unicode="&#59253;" d="M395.946667 661.333333v-64H256v-469.333333h512V373.333333h64V128a64 64 0 0 0-64-64H256a64 64 0 0 0-64 64V597.333333a64 64 0 0 0 64 64h139.946667z m335.850666 87.914667l150.848-150.826667-158.378666-158.4-45.269334 45.248L748.394667 554.666667H672c-121.685333 0-220.714667-97.024-223.914667-217.941334L448 330.666667v-85.333334h-64v85.333334C384 489.728 512.938667 618.666667 672 618.666667h99.861333l-85.312 85.333333 45.248 45.248z"  horiz-adv-x="1024" />

    
    <glyph glyph-name="sound-Mute" unicode="&#59254;" d="M599.104 419.946667v-313.472c0-43.626667-53.866667-64.789333-84.053333-33.024l-137.194667 125.269333 45.290667 45.290667 111.957333-102.186667V355.925333l64 64z m183.68 183.701333a308.885333 308.885333 0 0 0 111.957333-211.2v-56.042667c-9.450667-105.472-71.850667-195.690667-160.426666-243.882666l-29.546667 56.789333A245.269333 245.269333 0 0 1 832 364.416a244.906667 244.906667 0 0 1-94.72 193.685333l45.525333 45.546667z m-94.933333 55.893333l45.269333-45.248-482.730667-482.709333-45.248 45.226667 482.709334 482.730666z m10.090666-140.757333a191.466667 191.466667 0 0 0 69.376-147.84 191.466667 191.466667 0 0 0-92.416-164.224l-29.653333 56.96a127.488 127.488 0 0 1 58.069333 107.242667c0 41.962667-20.053333 79.146667-50.944 102.293333l45.568 45.568z m-98.837333 133.76v-21.418667l-64-64V613.76l-131.157333-138.090667-200.554667 3.349334v-213.482667l30.122667 0.021333-57.749334-57.770666a64 64 0 0 0-36.373333 57.749333V479.018667a64 64 0 0 0 60.224 63.893333l4.309333 0.106667 172.970667-2.88 138.176 145.450666c30.165333 31.786667 84.053333 10.602667 84.053333-33.024z"  horiz-adv-x="1024" />

    
    <glyph glyph-name="sound-filling" unicode="&#59255;" d="M599.104 652.565333V106.453333c0-43.626667-53.866667-64.789333-84.053333-33.024l-140.309334 128.085334H203.392a64 64 0 0 0-64 64V479.018667a64 64 0 0 0 60.224 63.893333l4.309333 0.106667 172.970667-2.88 138.176 145.450666c30.165333 31.786667 84.053333 10.602667 84.053333-33.024z m127.68-12.309333c92.544-47.082667 158.229333-139.392 167.957333-247.829333v-56.021334c-9.450667-105.472-71.850667-195.690667-160.426666-243.882666L704.789333 149.333333A245.269333 245.269333 0 0 1 832 364.416a245.333333 245.333333 0 0 1-134.698667 219.029333l29.482667 56.810667z m-191.68-26.496l-131.157333-138.090667-200.554667 3.349334v-213.482667h196.16l135.552-123.733333V613.76z m137.770667-77.418667a191.466667 191.466667 0 0 0 94.442666-165.418666 191.466667 191.466667 0 0 0-92.416-164.202667l-29.653333 56.96a127.488 127.488 0 0 1 58.069333 107.242667 127.488 127.488 0 0 1-60.010666 108.501333l29.568 56.917333z"  horiz-adv-x="1024" />

    
    <glyph glyph-name="stop" unicode="&#59256;" d="M512 746.666667c200.298667 0 362.666667-162.368 362.666667-362.666667s-162.368-362.666667-362.666667-362.666667S149.333333 183.701333 149.333333 384 311.701333 746.666667 512 746.666667z m0-64c-164.949333 0-298.666667-133.717333-298.666667-298.666667s133.717333-298.666667 298.666667-298.666667 298.666667 133.717333 298.666667 298.666667-133.717333 298.666667-298.666667 298.666667z m64-170.666667a64 64 0 0 0 64-64v-128a64 64 0 0 0-64-64h-128a64 64 0 0 0-64 64v128a64 64 0 0 0 64 64h128z m0-64h-128v-128h128v128z"  horiz-adv-x="1024" />

    
    <glyph glyph-name="success" unicode="&#59257;" d="M512 746.666667c200.298667 0 362.666667-162.368 362.666667-362.666667s-162.368-362.666667-362.666667-362.666667S149.333333 183.701333 149.333333 384 311.701333 746.666667 512 746.666667z m0-64c-164.949333 0-298.666667-133.717333-298.666667-298.666667s133.717333-298.666667 298.666667-298.666667 298.666667 133.717333 298.666667 298.666667-133.717333 298.666667-298.666667 298.666667z m169.045333-127.04l45.909334-44.586667-271.829334-279.722667-136.832 141.952 46.08 44.416 90.944-94.336 225.728 232.277334z"  horiz-adv-x="1024" />

    
    <glyph glyph-name="switch" unicode="&#59258;" d="M405.333333 708.330667v-68.266667c-100.224-41.770667-170.666667-140.693333-170.666666-256.064 0-153.173333 124.16-277.333333 277.333333-277.333333s277.333333 124.16 277.333333 277.333333c0 115.370667-70.442667 214.272-170.666666 256.064l0.021333 68.266667C754.944 663.530667 853.333333 535.253333 853.333333 384c0-188.522667-152.810667-341.333333-341.333333-341.333333S170.666667 195.477333 170.666667 384c0 151.253333 98.389333 279.552 234.666666 324.330667zM544 757.333333v-384h-64v384h64z"  horiz-adv-x="1024" />

    
    <glyph glyph-name="text" unicode="&#59259;" d="M725.333333 672V554.666667h-64v53.333333h-181.333333V128H554.666667v-64H341.333333v64h74.666667V608h-192V554.666667h-64v117.333333H725.333333zM853.333333 128v-64H597.333333v64h256z m0 128v-64H597.333333v64h256z m0 128v-64H597.333333v64h256z"  horiz-adv-x="1024" />

    
    <glyph glyph-name="suspended" unicode="&#59260;" d="M512 768c200.298667 0 362.666667-162.368 362.666667-362.666667s-162.368-362.666667-362.666667-362.666666S149.333333 205.034667 149.333333 405.333333 311.701333 768 512 768z m0-64c-164.949333 0-298.666667-133.717333-298.666667-298.666667s133.717333-298.666667 298.666667-298.666666 298.666667 133.717333 298.666667 298.666666S676.949333 704 512 704z m-42.666667-170.666667v-277.333333h-64V533.333333h64z m138.666667 0v-277.333333h-64V533.333333h64z"  horiz-adv-x="1024" />

    
    <glyph glyph-name="Top" unicode="&#59261;" d="M512 746.666667c200.298667 0 362.666667-162.368 362.666667-362.666667s-162.368-362.666667-362.666667-362.666667S149.333333 183.70133299999998 149.333333 384 311.701333 746.666667 512 746.666667z m0-64c-164.949333 0-298.666667-133.717333-298.666667-298.666667s133.717333-298.666667 298.666667-298.666667 298.666667 133.717333 298.666667 298.666667-133.717333 298.666667-298.666667 298.666667z m5.333333-168.085334L711.914667 320l-45.248-45.248-149.333334 149.333333-149.333333-149.333333L322.752 320l194.581333 194.581333z"  horiz-adv-x="1024" />

    
    <glyph glyph-name="tradingvolume" unicode="&#59262;" d="M245.333333 650.666667V128H810.666667v-64H277.333333a96 96 0 0 0-96 96v490.666667h64z m581.141334 42.666666V469.333333h-64v111.082667l-194.688-199.701333-61.653334 63.872-141.781333-146.816-46.037333 44.458666 187.797333 194.517334 61.909333-64.128 152.746667 156.714666h-102.464v64h208.170667z"  horiz-adv-x="1024" />

    
    <glyph glyph-name="upload" unicode="&#59263;" d="M704 554.666667h64a64 64 0 0 0 64-64v-362.666667a64 64 0 0 0-64-64H256a64 64 0 0 0-64 64V490.666667a64 64 0 0 0 64 64h64v-64h-64v-362.666667h512V490.666667h-64v64zM517.653333 771.370667l150.826667-150.826667-45.226667-45.269333-74.026666 74.005333v-304.768h-64V648.384l-73.173334-73.130667-45.248 45.248 150.826667 150.848z"  horiz-adv-x="1024" />

    
    <glyph glyph-name="viewlarger" unicode="&#59264;" d="M469.333333 704c153.173333 0 277.333333-124.16 277.333334-277.333333 0-68.053333-24.533333-130.410667-65.216-178.688l164.885333-170.218667-48.341333-49.877333-167.594667 172.992A276.053333 276.053333 0 0 0 469.333333 149.333333c-153.173333 0-277.333333 124.16-277.333333 277.333334S316.16 704 469.333333 704z m0-64c-117.824 0-213.333333-95.509333-213.333333-213.333333s95.509333-213.333333 213.333333-213.333334 213.333333 95.509333 213.333334 213.333334-95.509333 213.333333-213.333334 213.333333z m32-85.333333v-96H597.333333v-64h-96V298.666667h-64v96.021333L341.333333 394.666667v64l96 0.021333V554.666667h64z"  horiz-adv-x="1024" />

    
    <glyph glyph-name="warning" unicode="&#59265;" d="M543.082667 734.826667a64 64 0 0 0 24.853333-24.853334l317.909333-572.224A64 64 0 0 0 829.866667 42.666667H194.133333a64 64 0 0 0-55.957333 95.082666L456.064 709.973333a64 64 0 0 0 87.018667 24.853334zM512 678.890667L194.112 106.666667H829.866667L512 678.890667zM544 234.666667v-64h-64v64h64z m0 276.437333V277.333333h-64V511.104h64z"  horiz-adv-x="1024" />

    
    <glyph glyph-name="set" unicode="&#59266;" d="M448.362667 729.173333l113.6-0.170666a64 64 0 0 0 63.893333-63.914667l0.042667-18.517333a301.461333 301.461333 0 0 0 62.101333-34.88l15.210667 8.746666a64 64 0 0 0 87.296-23.381333l56.938666-98.304a64 64 0 0 0-19.989333-85.397333l-3.477333-2.133334-15.274667-8.810666c2.624-24.234667 2.304-48.853333-1.130667-73.322667l10.794667-6.250667a64 64 0 0 0 25.216-84.117333l-1.770667-3.306667-53.333333-92.373333a64 64 0 0 0-84.117333-25.216l-3.328 1.792-14.741334 8.533333a298.538667 298.538667 0 0 0-59.626666-33.28v-25.386666a64 64 0 0 0-59.989334-63.957334l-4.074666-0.128-113.6 0.170667a64 64 0 0 0-63.893334 63.893333l-0.064 30.613334a302.613333 302.613333 0 0 0-50.069333 29.696l-27.221333-15.658667a64 64 0 0 0-87.296 23.402667l-56.938667 98.282666a64 64 0 0 0 19.989333 85.418667l3.477334 2.133333 27.690666 15.936c-2.133333 20.266667-2.24 40.768-0.192 61.226667l-30.741333 17.770667A64 64 0 0 0 158.506667 502.4l1.792 3.306667 53.333333 92.373333a64 64 0 0 0 84.117333 25.216l3.306667-1.792 26.794667-15.466667a297.984 297.984 0 0 0 56.426666 34.666667v24.362667a64 64 0 0 0 59.989334 63.978666l4.074666 0.128z m-0.085334-64l0.064-65.066666-36.778666-17.301334c-15.744-7.402667-30.613333-16.533333-44.309334-27.221333l-34.005333-26.538667-62.570667 36.138667-1.6 0.896-53.333333-92.373333 66.56-38.421334-4.138667-41.152c-1.6-15.978667-1.536-32.106667 0.149334-48.085333l4.394666-41.429333-63.786666-36.736 56.917333-98.282667 63.338667 36.416 33.6-24.597333a237.994667 237.994667 0 0 1 39.466666-23.424l36.736-17.258667 0.128-71.168 113.578667-0.170667-0.064 68.16 39.466667 16.426667a234.538667 234.538667 0 0 1 46.826666 26.112l33.578667 24.128 50.56-29.184 53.290667 92.394667-48.128 27.818666 5.973333 42.688c2.666667 19.093333 2.965333 38.421333 0.896 57.6l-4.48 41.450667 51.456 29.696-56.938667 98.282667-51.2-29.504-33.621333 24.512a238.037333 238.037333 0 0 1-48.938667 27.498666l-39.381333 16.341334-0.128 61.184-113.578667 0.170666z m127.381334-183.722666a128.170667 128.170667 0 0 0 46.890666-174.933334 127.829333 127.829333 0 0 0-174.762666-46.848 128.170667 128.170667 0 0 0-46.869334 174.933334 127.829333 127.829333 0 0 0 174.741334 46.848z m-119.317334-78.805334a64.170667 64.170667 0 0 1 23.466667-87.573333 63.829333 63.829333 0 0 1 87.296 23.402667 64.170667 64.170667 0 0 1-20.266667 85.589333l-3.2 1.984-3.306666 1.770667a63.829333 63.829333 0 0 1-83.989334-25.173334z"  horiz-adv-x="1024" />

    
    <glyph glyph-name="tool-hardware" unicode="&#59267;" d="M393.301333 692.928l3.584-1.749333 77.653334-41.088a64 64 0 0 0 33.728-50.090667l0.298666-4.266667 4.373334-126.336 24.192-25.045333 62.549333 62.506667-46.933333 46.933333a64 64 0 0 0 0 90.517333l31.68 31.722667a64 64 0 0 0 90.517333 0l186.816-186.816a64 64 0 0 0 18.261333-53.141333l-9.642666-77.696a53.525333 53.525333 0 0 0-90.965334-31.253334l-43.946666 43.989334-64.917334-64.853334 118.506667-122.666666a64 64 0 0 0 1.792-87.04l-2.56-2.688-44.8-44.842667a64 64 0 0 0-87.808-1.066667l-2.709333 2.645334-116.970667 121.088-121.173333-121.194667a64 64 0 0 0-90.496 0l-45.248 45.226667a64 64 0 0 0 0 90.538666l123.52 123.52-24.213334 25.066667-122.282666 11.306667a64 64 0 0 0-46.570667 27.093333l-2.346667 3.648-44.970666 74.709333a64 64 0 0 0 6.954666 75.477334l2.602667 2.773333 59.946667 59.946667 72.618666-72.661334 22.634667 22.613334-72.64 72.704 67.349333 67.392a64 64 0 0 0 71.616 13.077333z m-26.346666-58.325333l-22.144-22.144 72.64-72.682667-113.109334-113.173333-72.64 72.682666-14.656-14.677333 44.970667-74.709333 145.92-13.525334 128.853333-133.397333 44.586667-45.930667-0.128-0.106666 117.76-121.877334 44.032 44.053334-293.205333 303.509333-5.226667 150.890667-77.653333 41.088z m80.106666-370.858667l-122.730666-122.752 45.248-45.248 121.941333 121.962667-44.458667 46.037333z m182.613334 367.018667l-31.68-31.701334 92.202666-92.16-108.586666-108.586666 44.48-46.037334 109.376 109.354667 74.026666-74.090667 7.018667 56.405334-186.816 186.816z"  horiz-adv-x="1024" />

    
    <glyph glyph-name="sport" unicode="&#59268;" d="M512 746.666667c200.298667 0 362.666667-162.368 362.666667-362.666667s-162.368-362.666667-362.666667-362.666667S149.333333 183.701333 149.333333 384 311.701333 746.666667 512 746.666667z m9.536-661.184L512 85.333333c3.2 0 6.357333 0.042667 9.536 0.149334z m-36.394667 164.906666l-1.706666-0.981333a434.944 434.944 0 0 0-200.426667-57.109333 297.898667 297.898667 0 0 1 222.314667-106.88l0.853333-0.021334c3.84 17.130667 5.824 34.986667 5.824 53.269334 0 40.234667-9.685333 78.208-26.858667 111.722666z m47.146667-164.373333l-9.386667-0.490667c3.157333 0.106667 6.272 0.277333 9.386667 0.490667z m8.405333 0.682667l-7.04-0.597334c2.346667 0.170667 4.693333 0.362667 7.04 0.597334z m11.84 1.365333l-8.682666-1.066667c2.901333 0.32 5.802667 0.661333 8.682666 1.066667z m9.578667 1.450667l-9.109333-1.386667c3.050667 0.426667 6.08 0.874667 9.109333 1.386667z m41.024 260.394666a441.045333 441.045333 0 0 0-64.746667-63.274666A308.010667 308.010667 0 0 0 576 138.666667c0-16.042667-1.216-31.808-3.584-47.189334l-9.6-1.834666a298.965333 298.965333 0 0 1 242.56 238.165333c-22.314667-5.12-45.525333-7.808-69.376-7.808-47.573333 0-92.608 10.730667-132.864 29.909333z m-331.093333-143.786666l0.384-0.512c2.944-3.925333 5.973333-7.765333 9.066666-11.541334l1.472-1.770666c-3.776 4.48-7.402667 9.109333-10.901333 13.824z m-5.333334 7.466666l2.069334-2.965333a299.52 299.52 0 0 0-2.069334 2.944z m-16.213333 26.026667l1.536-2.773333c4.096-7.210667 8.512-14.272 13.184-21.12l-4.906667 7.445333a298.709333 298.709333 0 0 0-9.813333 16.426667zM266.666667 384c-18.282667 0-36.117333-2.005333-53.248-5.802667L213.333333 384a297.344 297.344 0 0 1 28.330667-127.146667 371.626667 371.626667 0 0 1 206.890667 46.378667A244.522667 244.522667 0 0 1 266.666667 384z m541.994666-34.752l-1.386666-10.453333a297.728 297.728 0 0 0 1.386666 10.453333zM429.461333 671.146667l-0.938666-0.277334a299.178667 299.178667 0 0 1-208.106667-221.930666l-0.981333-4.522667C234.88 446.784 250.624 448 266.666667 448c94.208 0 178.56-42.112 235.306666-108.522667a375.04 375.04 0 0 1 45.909334 44.288A308.778667 308.778667 0 0 0 426.666667 629.333333c0 14.165333 0.96 28.117333 2.794666 41.792zM809.770667 360.746667l-1.002667-10.56c0.405333 3.498667 0.725333 7.04 1.002667 10.56z m0.128 1.770666l0.106666 1.578667a303.146667 303.146667 0 0 1-0.106666-1.578667z m-106.197334 250.517334a434.986667 434.986667 0 0 0-62.72-209.962667c29.226667-12.288 61.333333-19.072 95.018667-19.072 25.941333 0 50.965333 4.032 74.453333 11.498667a297.984 297.984 0 0 1-106.752 217.536z m-488.96-199.722667l-0.256-2.858667A302.506667 302.506667 0 0 1 213.333333 384.213333V384c0 9.877333 0.490667 19.669333 1.429334 29.312z m1.194667 10.325333c0-0.128 0-0.064 0 0z m1.344 9.024l-0.426667-2.773333 0.426667 2.773333zM512 682.666667c-5.226667 0-10.453333-0.128-15.616-0.405334-3.733333-17.066667-5.717333-34.773333-5.717333-52.928a244.906667 244.906667 0 0 1 95.061333-193.941333A371.605333 371.605333 0 0 1 640 629.333333c0 8.384-0.277333 16.725333-0.832 24.96A297.429333 297.429333 0 0 1 512 682.666667zM219.349333 443.946667l-0.256-1.322667 0.256 1.322667z m470.037334 180.352l6.869333-5.226667a300.224 300.224 0 0 0-6.869333 5.226667z m-16.234667 11.2l7.68-5.098667a299.904 299.904 0 0 0-7.68 5.12z m-15.914667 9.536l7.445334-4.266667a299.370667 299.370667 0 0 0-7.445334 4.266667z m-7.786666 4.202666l5.930666-3.178666-5.930666 3.178666z m-8.768 4.373334l1.856-0.917334z m-210.56 17.706666l4.522666 1.237334z m17.472 4.394667l-0.512-0.128 0.490666 0.128z m9.173333 1.856l-3.392-0.64 3.413333 0.64z m9.941333 1.706667l-0.597333-0.106667 0.597333 0.085333z m8.554667 1.152l-2.709333-0.341334 2.709333 0.341334z m10.944 1.152l-0.661333-0.064 0.682666 0.064z m8.746667 0.618666l-2.858667-0.192 2.88 0.192z"  horiz-adv-x="1024" />

    
    <glyph glyph-name="creditcard" unicode="&#59269;" d="M789.333333 661.333333a64 64 0 0 0 64-64v-426.666666a64 64 0 0 0-64-64H234.666667a64 64 0 0 0-64 64V597.333333a64 64 0 0 0 64 64h554.666666z m0-64H234.666667v-426.666666h554.666666V597.333333zM384 277.333333v-64h-106.666667v64h106.666667z m362.666667 213.333334v-64H277.333333v64h469.333334z"  horiz-adv-x="1024" />

    
    <glyph glyph-name="Daytimemode" unicode="&#59270;" d="M478.634667 84.650667a304.490667 304.490667 0 0 1 64.021333-0.277334v-124.330666h-64v124.608z m267.776 110.229333l87.594666-87.637333-45.226666-45.248-87.658667 87.594666c16.64 13.44 31.829333 28.629333 45.290667 45.290667z m-469.994667 1.493333c13.333333-16.746667 28.416-32 44.970667-45.568L232.533333 61.994667l-45.248 45.226666 89.130667 89.130667zM512 634.965333c138.602667 0 250.986667-112.384 250.986667-250.986666 0-138.602667-112.384-250.986667-250.986667-250.986667-138.602667 0-250.986667 112.384-250.986667 250.986667 0 138.602667 112.384 250.986667 250.986667 250.986666z m0-64a186.986667 186.986667 0 1 1 0-373.973333 186.986667 186.986667 0 0 1 0 373.973333z m423.957333-153.642666v-64h-124.330666a304.725333 304.725333 0 0 1-0.277334 64h124.608z m-723.306666 0a304.490667 304.490667 0 0 1-0.277334-64H85.333333v64h127.317334zM232.533333 708.736l90.346667-90.304c-16.64-13.44-31.829333-28.629333-45.290667-45.290667L187.306667 663.466667l45.226666 45.248z m556.224 0l45.248-45.226667-88.810666-88.874666a302.997333 302.997333 0 0 1-45.546667 44.970666l89.109333 89.130667zM542.656 810.666667v-127.04a304.725333 304.725333 0 0 1-64-0.277334V810.666667h64z"  horiz-adv-x="1024" />

    
    <glyph glyph-name="insurance" unicode="&#59271;" d="M542.72 732.16v-62.8736c164.4544-15.29856 293.66272-152.12544 296.89856-319.7952L839.68 343.04H542.72v-194.56a102.4 102.4 0 0 0-204.6976-4.44416L337.92 148.48v20.48h61.44v-20.48a40.96 40.96 0 0 1 81.8176-3.072l0.1024 3.072V343.04H184.32c0 170.61888 130.39616 310.784 296.96 326.2464V732.16h61.44zM512 609.28l-9.50272-0.16384a270.09024 270.09024 0 0 1-10.52672-0.57344l8.88832 0.512c-3.6864-0.16384-7.35232-0.38912-10.99776-0.67584l2.10944 0.16384c-3.09248-0.22528-6.18496-0.512-9.23648-0.86016l7.12704 0.69632c-115.97824-9.54368-210.88256-93.42976-236.97408-203.89888h518.22592l-1.51552 6.144c-28.30336 108.19584-122.94144 189.39904-237.58848 197.91872a268.9024 268.9024 0 0 1-8.8064 0.512l8.8064-0.512c-3.50208 0.26624-7.02464 0.45056-10.5472 0.57344L512 609.28z"  horiz-adv-x="1024" />

    
    <glyph glyph-name="nightmode" unicode="&#59272;" d="M512 725.333333c15.530667 0 30.805333-1.045333 45.781333-3.050666a206.72 206.72 0 0 1-70.165333-155.434667c0-114.453333 92.8-207.232 207.232-207.232a206.72 206.72 0 0 1 155.434667 70.165333c2.005333-14.976 3.050667-30.250667 3.050666-45.781333 0-188.522667-152.810667-341.333333-341.333333-341.333333S170.666667 195.477333 170.666667 384 323.477333 725.333333 512 725.333333z m-75.029333-74.261333l-6.229334-1.834667C317.226667 614.506667 234.666667 508.885333 234.666667 384c0-153.173333 124.16-277.333333 277.333333-277.333333 127.146667 0 234.346667 85.589333 267.072 202.304-26.773333-8.746667-55.125333-13.354667-84.224-13.354667-149.781333 0-271.232 121.450667-271.232 271.232 0 25.856 3.648 51.136 10.581333 75.242667l2.773334 8.96zM751.232 725.333333v-77.696h77.717333v-64h-77.717333v-77.738666h-64v77.738666h-77.717333v64h77.717333V725.333333h64z"  horiz-adv-x="1024" />

    
    <glyph glyph-name="usercenter" unicode="&#59273;" d="M512 768c212.074667 0 384-171.925333 384-384s-171.925333-384-384-384S128 171.925333 128 384 299.925333 768 512 768z m0-64C335.274667 704 192 560.725333 192 384c0-91.242667 38.186667-173.546667 99.413333-231.850667l108.522667 129.386667a195.861333 195.861333 0 0 1 60.010667-28.053333l-117.930667-140.650667A318.506667 318.506667 0 0 1 512 64a318.506667 318.506667 0 0 1 161.237333 43.52l-120.170666 143.296a195.541333 195.541333 0 0 1 62.442666 25.088l109.589334-130.624A319.210667 319.210667 0 0 1 832 384c0 176.725333-143.274667 320-320 320z m0-106.666667a154.069333 154.069333 0 0 0 76.373333-287.914666l-0.64-0.362667-0.704-0.405333a153.685333 153.685333 0 0 0-4.928-2.624l5.632 3.029333a153.685333 153.685333 0 0 0-75.733333-19.861333 153.642667 153.642667 0 0 0-58.069333 11.306666l-0.213334 0.085334a153.173333 153.173333 0 0 0-5.653333 2.453333l5.888-2.56a153.194667 153.194667 0 0 0-20.970667 10.474667A154.069333 154.069333 0 0 0 512 597.333333z m0-64a90.069333 90.069333 0 1 1 0-180.138666A90.069333 90.069333 0 0 1 512 533.333333z"  horiz-adv-x="1024" />

    
    <glyph glyph-name="unlock" unicode="&#59274;" d="M522.666667 789.333333a181.333333 181.333333 0 0 0 181.333333-181.333333v-10.666667h-64v10.666667a117.333333 117.333333 0 0 1-234.666667 0V554.666667h384a64 64 0 0 0 64-64v-384a64 64 0 0 0-64-64H234.666667a64 64 0 0 0-64 64V490.666667a64 64 0 0 0 64 64h106.666666v53.333333A181.333333 181.333333 0 0 0 522.666667 789.333333zM789.333333 490.666667H234.666667v-384h554.666666V490.666667z m-234.666666-106.666667v-170.666667h-64v170.666667h64z"  horiz-adv-x="1024" />

    
    <glyph glyph-name="vip" unicode="&#59275;" d="M552.96 695.8720000000001a64 64 0 0 0 8.213333-8.213333L682.666667 541.866667l134.016 98.965333a64 64 0 0 0 100.117333-66.986667L789.333333 64H234.666667L107.2 573.8240000000001a64 64 0 0 0 100.117333 67.008L341.333333 541.866667l121.493334 145.792a64 64 0 0 0 90.154666 8.213333zM512 646.698667l-160.128-192.170667-182.570667 134.826667L284.629333 128h454.741334l115.328 461.354667-182.570667-134.826667L512 646.698667z m149.333333-400.64v-68.266667H362.666667v68.266667h298.666666z"  horiz-adv-x="1024" />

    
    <glyph glyph-name="voice" unicode="&#59276;" d="M512 768c212.074667 0 384-171.925333 384-384s-171.925333-384-384-384S128 171.925333 128 384 299.925333 768 512 768z m0-64C335.274667 704 192 560.725333 192 384c0-176.725333 143.274667-320 320-320 176.725333 0 320 143.274667 320 320 0 176.725333-143.274667 320-320 320z m54.442667-152.149333V210.56c0-27.264-33.664-40.490667-52.522667-20.629333l-87.701333 80.064h-83.093334a64 64 0 0 0-64 64V418.986667a64 64 0 0 0 64 64l84.437334-1.408 86.357333 90.922666c18.858667 19.84 52.522667 6.613333 52.522667-20.650666z m80.917333-5.546667A193.28 193.28 0 0 0 746.666667 377.344a193.28 193.28 0 0 0-99.157334-168.896l-29.589333 56.810667A129.28 129.28 0 0 1 682.666667 377.322667a129.28 129.28 0 0 1-64.810667 112.128l29.504 56.853333z m-39.744-76.586667a106.602667 106.602667 0 0 0 51.050667-91.050666 106.602667 106.602667 0 0 0-52.053334-91.648l-29.653333 57.024a42.602667 42.602667 0 0 1 1.002667 68.48l29.653333 57.173333z m-105.173333-2.24l-47.850667-50.346666-111.466667 1.856v-85.013334h107.904l51.413334-46.933333v180.437333z"  horiz-adv-x="1024" />

    
    <glyph glyph-name="quick" unicode="&#59299;" d="M647.125333 725.333333a42.666667 42.666667 0 0 0 39.381334-59.093333l-69.696-167.04h114.069333a42.666667 42.666667 0 0 0 33.194667-69.482667L457.834667 50.261333a42.666667 42.666667 0 0 0-75.029334 35.221334l40.746667 202.368h-137.109333a42.666667 42.666667 0 0 0-39.466667 58.88l144.533333 352.128A42.666667 42.666667 0 0 0 430.976 725.333333h216.149333z m-201.834666-64l-127.04-309.482666h183.488l-38.997334-193.578667 223.509334 276.906667H520.746667L615.104 661.333333h-169.813333z"  horiz-adv-x="1024" />

    
    <glyph glyph-name="home" unicode="&#59303;" d="M556.586667 736.64l288.490666-183.914667A64 64 0 0 0 874.666667 498.752v-392.746667a64 64 0 0 0-64-64H555.456l0.021333 196.992H490.666667v-196.992H234.666667a64 64 0 0 0-64 64v398.293334a64 64 0 0 0 30.272 54.4l287.530666 178.346666a64 64 0 0 0 68.138667-0.426666zM810.666667 105.984V498.773333L522.197333 682.666667 234.666667 504.32v-398.336h192v197.013333h192.810666v-196.992H810.666667z"  horiz-adv-x="1024" />

    
    <glyph glyph-name="add-select" unicode="&#59312;" d="M544 682.666667v-266.666667H810.666667v-64H544V85.33333300000004h-64V352H213.333333v64h266.666667V682.666667z"  horiz-adv-x="1024" />

    
    <glyph glyph-name="sami-select" unicode="&#59313;" d="M810.666667 416v-64H213.333333v64z"  horiz-adv-x="1024" />

    
    <glyph glyph-name="arrow-down" unicode="&#59314;" d="M500.8 291.221L267.307 524.608l-45.227-45.27 278.741-278.613L779.307 479.34l-45.248 45.248z"  horiz-adv-x="1024" />

    
    <glyph glyph-name="account" unicode="&#59315;" d="M644.8 314.432l160.64-187.456a64 64 0 0 0-48.597-105.643H267.157a64 64 0 0 0-48.597 105.643l160.661 187.435a253.813 253.813 0 0 1 61.206-26.944l-173.27-202.134h489.686l-173.27 202.134a254.613 254.613 0 0 1 61.227 26.965zM512 746.667c117.824 0 213.333-95.51 213.333-213.334S629.824 320 512 320s-213.333 95.51-213.333 213.333S394.176 746.667 512 746.667z m0-64A149.333 149.333 0 1 1 512 384a149.333 149.333 0 0 1 0 298.667z"  horiz-adv-x="1024" />

    
    <glyph glyph-name="cart-Empty1" unicode="&#59316;" d="M330.667 128a53.333 53.333 0 1 0 0-106.667 53.333 53.333 0 0 0 0 106.667z m384 0a53.333 53.333 0 1 0 0-106.667 53.333 53.333 0 0 0 0 106.667zM94.763 736h54.741a96 96 0 0 0 92.907-71.787l1.024-4.394 13.205-62.486h0.213L299.733 392l32.491-157.333h402.219l61.653 298.666H313.813l-13.376 64h495.68a64 64 0 0 0 62.678-76.949L797.14 221.717a64 64 0 0 0-62.698-51.05H332.224a64 64 0 0 0-62.677 51.05L208.96 515.136l-0.405-0.085-27.734 131.562a32 32 0 0 1-28.309 25.238l-2.987 0.149H94.741v64h54.742z"  horiz-adv-x="1024" />

    
    <glyph glyph-name="search" unicode="&#59317;" d="M469.333 704c153.174 0 277.334-124.16 277.334-277.333 0-68.054-24.534-130.411-65.216-178.688L846.336 77.76l-48.341-49.877L630.4 200.875a276.053 276.053 0 0 0-161.067-51.542C316.16 149.333 192 273.493 192 426.667S316.16 704 469.333 704z m0-64C351.51 640 256 544.49 256 426.667s95.51-213.334 213.333-213.334 213.334 95.51 213.334 213.334S587.157 640 469.333 640z"  horiz-adv-x="1024" />

    
    <glyph glyph-name="microphone" unicode="&#59327;" d="M288 369.237c0-123.733 100.288-224 224-224 121.685 0 220.715 97.024 223.915 217.92l0.085 6.08h64c0-144.554-106.496-264.234-245.333-284.864v-42.432l86.016-2.026-1.494-63.979-234.602 5.483 1.493 63.978 84.587-1.962v38.57C343.744 92.757 227.413 213.74 224.064 362.624l-0.064 6.613h64z m224 377.43A170.667 170.667 0 0 0 682.667 576v-213.333a170.667 170.667 0 1 0-341.334 0V576A170.667 170.667 0 0 0 512 746.667z m0-64a106.667 106.667 0 0 1-106.56-102.038l-0.107-4.629v-213.333a106.667 106.667 0 0 1 213.227-4.63l0.107 4.63V576A106.667 106.667 0 0 1 512 682.667z"  horiz-adv-x="1024" />

    
    <glyph glyph-name="radiobuttonunselect" unicode="&#59117;" d="M509.92 52.16C325.504 52.16 176 201.68 176 386.08 176 570.496 325.504 720 509.92 720c184.416 0 333.92-149.504 333.92-333.92 0-184.416-149.504-333.92-333.92-333.92z m0 48c157.904 0 285.92 128.016 285.92 285.92C795.84 544 667.808 672 509.92 672 352 672 224 544 224 386.08c0-157.904 128-285.92 285.92-285.92z"  horiz-adv-x="1040" />

    
    <glyph glyph-name="radiobuttonselect" unicode="&#59118;" d="M509.92 720C325.504 720 176 570.496 176 386.08c0-184.416 149.504-333.92 333.92-333.92 184.416 0 333.92 149.504 333.92 333.92C843.84 570.496 694.32 720 509.92 720z m0-48c157.904 0 285.92-128 285.92-285.92 0-157.904-128.016-285.92-285.92-285.92C352 100.16 224 228.192 224 386.08 224 544 352 672 509.92 672z m0-96C405.024 576 320 490.976 320 386.08c0-104.88 85.024-189.92 189.92-189.92 104.88 0 189.92 85.04 189.92 189.92 0 104.896-85.04 189.92-189.92 189.92z"  horiz-adv-x="1040" />

    
    <glyph glyph-name="centeralignment" unicode="&#59341;" d="M810.666667 128v-64H213.333333v64h597.333334z m-170.666667 192v-64H384v64h256z m85.333333 192v-64H298.666667v64h426.666666z m85.333334 192v-64H213.333333V704h597.333334z"  horiz-adv-x="1024" />

    
    <glyph glyph-name="click" unicode="&#59342;" d="M531.136 475.690667l3.541333-1.28 328.96-128.597334a64 64 0 0 0-10.261333-122.261333l-3.712-0.661333-114.496-16.917334-11.776-109.354666a64 64 0 0 0-119.637333-24.149334l-1.770667 3.477334-148.373333 311.338666a64 64 0 0 0 77.525333 88.405334z m-19.754667-60.885334l148.373334-311.338666 17.088 158.592 163.477333 24.149333-328.96 128.597333zM448 682.666667c117.354667 0 212.586667-94.762667 213.333333-211.946667l-66.496 26.005333a149.333333 149.333333 0 1 1-156.565333-176.426666l30.186667-63.338667c-6.741333-0.64-13.546667-0.96-20.458667-0.96-117.824 0-213.333333 95.509333-213.333333 213.333333s95.509333 213.333333 213.333333 213.333334z"  horiz-adv-x="1024" />

    
    <glyph glyph-name="flag" unicode="&#59343;" d="M844.544 746.666667l-200-202.666667 200-202.666667H256v-341.333333H192V746.666667h652.544z m-153.088-64H266.666667v-277.333334h424.789333l-136.832 138.666667 136.832 138.666667z"  horiz-adv-x="1024" />

    
    <glyph glyph-name="leftalignment" unicode="&#59344;" d="M810.666667 128v-64H213.333333v64h597.333334z m-341.333334 192v-64H213.333333v64h256z m170.666667 192v-64H213.333333v64h426.666667z m170.666667 192v-64H213.333333V704h597.333334z"  horiz-adv-x="1024" />

    
    <glyph glyph-name="Italic" unicode="&#59345;" d="M729.173333 746.666667v-64h-111.829333l-165.781333-618.666667h128.298666v-64H277.333333v64h107.968l165.76 618.666667H426.666667V746.666667h302.506666z"  horiz-adv-x="1024" />

    
    <glyph glyph-name="rightalignment" unicode="&#59346;" d="M810.666667 128v-64H213.333333v64h597.333334z m0 192v-64H554.666667v64h256z m0 192v-64H384v64h426.666667z m0 192v-64H213.333333V704h597.333334z"  horiz-adv-x="1024" />

    
    <glyph glyph-name="under-line" unicode="&#59347;" d="M812.714667 85.333333v-64H213.333333v64h599.381334zM379.370667 736v-64H309.333333v-279.616c0-103.829333 87.253333-188.949333 196.778667-191.914667l5.888-0.085333c112.256 0 202.666667 86.314667 202.666667 192V672H640v64h208.704v-64H778.666667v-279.616c0-139.562667-116.117333-252.522667-260.010667-255.914667l-6.656-0.085333c-146.944 0-266.666667 114.282667-266.666667 256V672H170.666667v64h208.704z"  horiz-adv-x="1024" />

    


  </font>
</defs>
</svg>
